<svg width="27" height="21" viewBox="0 0 27 21" fill="none" xmlns="http://www.w3.org/2000/svg">
<path d="M3.62693 20.5H22.6985C24.9694 20.5 26.168 19.3412 26.168 17.127V6.26306C26.168 4.04889 24.9694 2.89007 22.6985 2.89007H19.8283C19.0082 2.89007 18.7454 2.75556 18.2302 2.22788L17.3997 1.34842C16.853 0.779359 16.2957 0.5 15.2234 0.5H11.0495C9.97711 0.5 9.4304 0.779359 8.87319 1.34842L8.04261 2.22788C7.53796 2.74521 7.26461 2.89007 6.44456 2.89007H3.62693C1.356 2.89007 0.167969 4.04889 0.167969 6.26306V17.127C0.167969 19.3412 1.356 20.5 3.62693 20.5ZM3.7636 18.441C2.80687 18.441 2.26016 17.9444 2.26016 16.9408V6.4493C2.26016 5.45603 2.80687 4.95939 3.7636 4.95939H7.05434C8.00056 4.95939 8.48418 4.79384 9.02037 4.22478L9.8194 3.35566C10.4082 2.72452 10.7236 2.55898 11.6488 2.55898H14.6241C15.5493 2.55898 15.8647 2.72452 16.4429 3.34532L17.2525 4.22478C17.7887 4.79384 18.2723 4.95939 19.2185 4.95939H22.5618C23.5291 4.95939 24.0653 5.45603 24.0653 6.4493V16.9408C24.0653 17.9444 23.5291 18.441 22.5618 18.441H3.7636ZM13.1627 17.0753C16.3168 17.0753 18.84 14.5921 18.84 11.4778C18.84 8.36342 16.3168 5.88024 13.1627 5.88024C10.0192 5.88024 7.49591 8.36342 7.49591 11.4778C7.49591 14.5921 10.0192 17.0753 13.1627 17.0753ZM19.1975 7.77367C19.1975 8.52897 19.8178 9.11873 20.5748 9.10838C21.3107 9.10838 21.931 8.51862 21.931 7.77367C21.931 7.04941 21.3002 6.42861 20.5748 6.42861C19.8178 6.42861 19.1975 7.04941 19.1975 7.77367ZM13.1627 15.1922C11.0915 15.1922 9.39886 13.5367 9.39886 11.4778C9.39886 9.40843 11.081 7.76332 13.1627 7.76332C15.2549 7.76332 16.9371 9.40843 16.9371 11.4778C16.9371 13.5367 15.2549 15.1922 13.1627 15.1922Z" fill="white"/>
</svg>
