<svg width="23" height="23" viewBox="0 0 23 23" fill="none" xmlns="http://www.w3.org/2000/svg">
<path d="M11.1927 15.8118L12.7565 14.2297C11.5504 14.1277 10.6817 13.7296 10.0582 13.107C8.33092 11.382 8.33092 8.9425 10.048 7.23792L13.4413 3.83898C15.1685 2.1242 17.6011 2.11399 19.3284 3.83898C21.0659 5.57418 21.0454 8.00345 19.3386 9.71823L17.6011 11.4432C17.9281 12.1985 18.0406 13.1172 17.8566 13.9133L20.7797 11.0043C23.294 8.5036 23.3042 4.93113 20.7695 2.39979C18.2245 -0.141766 14.6677 -0.121352 12.1535 2.38958L8.59666 5.94163C6.08237 8.45256 6.07215 12.0148 8.60688 14.5462C9.19968 15.1484 10.0173 15.5975 11.1927 15.8118ZM12.1432 7.18689L10.5795 8.76898C11.7855 8.88126 12.6543 9.26912 13.2777 9.89175C15.0152 11.6167 15.005 14.0562 13.2879 15.771L9.89468 19.1597C8.16739 20.8847 5.73487 20.8847 4.01779 19.1597C2.28028 17.4245 2.2905 15.0055 4.00757 13.2907L5.73487 11.5555C5.40781 10.8104 5.3056 9.89175 5.47935 9.0854L2.55624 12.0046C0.0419525 14.5053 0.0317318 18.0676 2.56646 20.5989C5.11141 23.1405 8.6682 23.1201 11.1825 20.6194L14.7393 17.0571C17.2536 14.5462 17.2638 10.9839 14.7291 8.45256C14.1363 7.86055 13.3288 7.41144 12.1432 7.18689Z" fill="white"/>
</svg>
