<svg width="27" height="27" viewBox="0 0 27 27" fill="none" xmlns="http://www.w3.org/2000/svg">
<path d="M7.89582 19.3047C11.9298 23.348 16.8388 26.4625 20.8454 26.4625C22.6368 26.4625 24.2093 25.8341 25.4674 24.4408C26.2058 23.6212 26.657 22.6787 26.657 21.7361C26.657 21.0121 26.3699 20.3018 25.6725 19.8101L21.4745 16.8322C20.8044 16.3678 20.2574 16.1492 19.7652 16.1492C19.1225 16.1492 18.5481 16.5044 17.9191 17.1327L16.9346 18.1162C16.7705 18.2665 16.579 18.3348 16.4013 18.3348C16.1825 18.3348 15.9774 18.2528 15.8406 18.1709C14.9791 17.7064 13.5023 16.4497 12.1349 15.0837C10.7674 13.7178 9.49572 12.2561 9.04447 11.3819C8.96242 11.2316 8.89405 11.0404 8.89405 10.8219C8.89405 10.6579 8.94875 10.4667 9.09916 10.3028L10.0837 9.3056C10.6991 8.66359 11.0683 8.10353 11.0683 7.46151C11.0683 6.9561 10.8495 6.4097 10.3846 5.75402L7.41722 1.60141C6.91127 0.891094 6.2002 0.590576 5.42076 0.590576C4.49091 0.590576 3.56105 1.00037 2.75426 1.77899C1.38683 3.06302 0.785156 4.66123 0.785156 6.42336C0.785156 10.4257 3.86189 15.275 7.89582 19.3047Z" fill="white"/>
</svg>
