<svg width="24" height="23" viewBox="0 0 24 23" fill="none" xmlns="http://www.w3.org/2000/svg">
<path d="M3.7568 16.7269H7.56659C7.10792 16.1558 6.8271 15.5847 6.71477 15.0333H3.86913C2.9237 15.0333 2.41822 14.4819 2.41822 13.4776V3.74931C2.41822 2.74498 2.9237 2.20343 3.86913 2.20343H16.0942C17.0302 2.20343 17.5544 2.74498 17.5544 3.74931V7.38264C18.0786 7.3334 18.6215 7.44171 19.1738 7.72726V3.58192C19.1738 1.54372 18.1722 0.5 16.2065 0.5H3.7568C1.80042 0.5 0.798828 1.53387 0.798828 3.58192V13.6449C0.798828 15.693 1.80042 16.7269 3.7568 16.7269ZM19.5202 22.0045C23.3861 20.5276 24.6873 17.1503 23.1989 12.7982L22.5717 10.9864C22.0101 9.35192 20.8962 8.59374 20.0069 8.93837C19.801 9.01714 19.7261 9.18453 19.7916 9.40115L20.0631 10.1889C20.1754 10.5335 20.0724 10.7796 19.8852 10.8584C19.6699 10.9372 19.4453 10.8289 19.3236 10.4744L19.1457 9.95255C18.7994 8.97775 17.985 8.55436 17.1613 8.86944C16.7775 9.00729 16.6558 9.25345 16.7775 9.60792L17.1519 10.6713C17.2736 11.0258 17.1706 11.2621 16.9741 11.331C16.7588 11.4098 16.5341 11.3114 16.4124 10.9569L16.0754 9.96239C15.701 8.86944 14.9054 8.5642 14.1003 8.86944C13.7353 9.00729 13.6042 9.27314 13.7165 9.59808L14.4467 11.7151C14.5684 12.0597 14.456 12.296 14.2688 12.3748C14.0535 12.4535 13.8289 12.3452 13.7072 11.9908L11.3015 5.02935C11.0488 4.31056 10.4403 4.01517 9.85995 4.23179C9.24215 4.47795 8.97069 5.10812 9.21407 5.81706L12.7337 15.949C12.8179 16.1853 12.715 16.3626 12.5745 16.4118C12.4435 16.461 12.3031 16.4216 12.1252 16.2247L9.77571 13.5662C9.41064 13.1526 9.00813 13.0246 8.55882 13.2019C7.9223 13.448 7.6602 14.0585 7.86613 14.6394C7.93166 14.8462 8.04398 15.0234 8.14695 15.1613L11.1798 19.1294C13.7165 22.4378 16.6184 23.1172 19.5202 22.0045Z" fill="white"/>
</svg>
