<svg width="87" height="12" viewBox="0 0 87 12" fill="none" xmlns="http://www.w3.org/2000/svg">
<path d="M6.42898 0.367528C5.79993 0.237533 5.32044 0.138916 4.6606 0.138916C2.76465 0.138916 2.00803 1.05785 2.00803 2.69399V3.88635H0.820312V5.81835H2.00803V11.6995H4.32188V5.81835H6.01108L6.16944 3.88635H4.32188V2.95398C4.32188 2.42952 4.37027 2.10229 5.10929 2.10229C5.38203 2.10229 5.81753 2.1516 6.13865 2.21883L6.42898 0.367528ZM13.4013 11.6995V6.60728C13.4013 4.39737 12.8075 3.55913 10.0933 3.55913C9.19152 3.55913 8.017 3.72498 7.27798 3.95359L7.58591 5.72421C8.32493 5.57629 9.01557 5.49112 9.7062 5.49112C10.9423 5.49112 11.0875 5.77352 11.0875 6.58935V7.1945H9.39828C7.79266 7.1945 7.07123 7.83551 7.07123 9.44027C7.07123 10.7985 7.66509 11.8609 9.11234 11.8609C9.64022 11.8609 10.4452 11.6995 11.3426 11.1885L11.5054 11.6995H13.4013ZM11.0875 9.74957C10.7356 9.91543 10.3968 10.0275 9.91295 10.0275C9.46426 10.0275 9.2883 9.84819 9.2883 9.40441C9.2883 8.96512 9.48186 8.83512 9.97894 8.83512H11.0875V9.74957ZM17.1624 6.76865C17.1624 5.95282 17.4967 5.57629 18.4293 5.57629C18.8824 5.57629 19.5555 5.65697 20.0393 5.77352L20.3253 3.80567C19.5379 3.62636 18.9748 3.55913 18.4293 3.55913C15.8911 3.55913 14.8486 4.52736 14.8486 6.80452V8.61996C14.8486 10.8971 15.8911 11.8609 18.4293 11.8609C18.9748 11.8609 19.5379 11.7981 20.3253 11.6143L20.0393 9.65095C19.4763 9.78095 19.0232 9.84819 18.4293 9.84819C17.4967 9.84819 17.1624 9.47165 17.1624 8.65134V6.76865ZM27.8959 8.53927V6.86727C27.8959 5.13251 27.3328 3.55913 24.7286 3.55913C22.1245 3.55913 21.3722 5.0339 21.3722 6.75521V8.61996C21.3722 10.5833 22.3356 11.8609 24.8738 11.8609C25.9647 11.8609 27.1085 11.6143 27.8123 11.3543L27.478 9.5882C26.7873 9.79888 25.8196 9.92887 25.0981 9.92887C24.038 9.92887 23.6861 9.68233 23.6861 8.76789V8.53927H27.8959ZM25.7096 6.76865H23.6861V6.42798C23.6861 5.86766 23.9412 5.41043 24.7462 5.41043C25.5468 5.41043 25.7096 5.86766 25.7096 6.42798V6.76865ZM36.5222 8.50341V6.44143C36.5222 4.65736 35.8492 3.55913 34.1116 3.55913C33.2626 3.55913 32.5236 3.75636 31.8945 4.0029V0.138916L29.5807 0.466145V11.6009C30.6584 11.7802 31.9253 11.8609 32.7611 11.8609C35.9944 11.8609 36.5222 10.404 36.5222 8.50341ZM31.8945 6.05144C32.33 5.81835 32.8755 5.60767 33.3726 5.60767C33.984 5.60767 34.2084 5.93489 34.2084 6.45936V8.52134C34.2084 9.27442 34.0016 9.81681 32.8447 9.81681C32.5236 9.81681 32.2333 9.81681 31.8945 9.78095V6.05144ZM41.3435 11.8609C44.1236 11.8609 44.8758 10.274 44.8758 8.63789V6.78658C44.8758 5.15044 44.1236 3.55913 41.3435 3.55913C38.5633 3.55913 37.8067 5.15044 37.8067 6.78658V8.63789C37.8067 10.274 38.5633 11.8609 41.3435 11.8609ZM41.3435 9.87957C40.5077 9.87957 40.1206 9.45372 40.1206 8.70065V6.71935C40.1206 5.96627 40.5077 5.54043 41.3435 5.54043C42.1793 5.54043 42.562 5.96627 42.562 6.71935V8.70065C42.562 9.45372 42.1793 9.87957 41.3435 9.87957ZM49.6971 11.8609C52.4772 11.8609 53.2339 10.274 53.2339 8.63789V6.78658C53.2339 5.15044 52.4772 3.55913 49.6971 3.55913C46.917 3.55913 46.1647 5.15044 46.1647 6.78658V8.63789C46.1647 10.274 46.917 11.8609 49.6971 11.8609ZM49.6971 9.87957C48.8613 9.87957 48.4786 9.45372 48.4786 8.70065V6.71935C48.4786 5.96627 48.8613 5.54043 49.6971 5.54043C50.5329 5.54043 50.92 5.96627 50.92 6.71935V8.70065C50.92 9.45372 50.5329 9.87957 49.6971 9.87957ZM57.2325 11.6995V0.138916L54.9187 0.466145V11.6995H57.2325ZM57.5404 7.68758L59.6255 11.6995H62.1022L59.9511 7.68758L62.0054 3.72498H59.5332L57.5404 7.68758Z" fill="#3A589E"/>
<path d="M72.1483 11.7131H72.9841L69.6321 1.90068H68.374L65.0176 11.7131H65.8578L66.7552 9.13557H71.2377L72.1483 11.7131ZM68.9942 2.40273L70.9782 8.38249H67.0147L68.9942 2.40273ZM74.4621 9.87071C74.4621 11.1707 75.0824 11.861 76.4549 11.861C77.2379 11.861 78.1177 11.5831 78.8303 11.0362L78.8699 11.7131H79.6397V1.48828L78.7995 1.60483V4.62609C77.9901 4.46472 77.3698 4.39299 76.6308 4.39299C75.0384 4.39299 74.4621 5.28951 74.4621 6.60291V9.87071ZM78.7995 10.18C78.1353 10.7269 77.383 11.0945 76.5164 11.0945C75.5619 11.0945 75.2979 10.7 75.2979 9.87071V6.60291C75.2979 5.63019 75.6762 5.15952 76.6 5.15952C77.2819 5.15952 78.0341 5.24469 78.7995 5.40606V10.18ZM86.2909 9.90209C86.2909 8.5618 86.1766 8.22112 84.1046 7.69218C82.807 7.3515 82.7454 7.2484 82.7454 6.26223C82.7454 5.48226 82.9213 5.15952 84.1486 5.15952C84.7293 5.15952 85.5519 5.24469 86.115 5.36572L86.2029 4.63954C85.6531 4.47816 84.8569 4.39299 84.2058 4.39299C82.4726 4.39299 81.9096 5.03849 81.9096 6.23085C81.9096 7.54425 82.0547 7.98803 83.8187 8.41387C85.4243 8.79489 85.4507 8.90247 85.4507 9.93347C85.4507 10.8434 85.1912 11.0945 83.8891 11.0945C83.37 11.0945 82.631 10.9914 82.0239 10.8031L81.8788 11.4934C82.4023 11.7131 83.2381 11.861 83.9463 11.861C85.829 11.861 86.2909 11.1976 86.2909 9.90209Z" fill="#828282"/>
</svg>
