<svg width="54" height="29" viewBox="0 0 54 29" fill="none" xmlns="http://www.w3.org/2000/svg">
<path fill-rule="evenodd" clip-rule="evenodd" d="M0.046875 25.9549H1.83133V18.926L4.58296 25.0558C4.90963 25.7909 5.3459 26.0498 6.21752 26.0498C7.08945 26.0498 7.52541 25.7909 7.85208 25.0558L10.6037 18.926V25.9549H12.3744V18.9395C12.3744 18.2587 12.1018 17.9311 11.5434 17.754C10.1949 17.3318 9.28208 17.6997 8.8736 18.6125L6.17661 24.647L3.56144 18.6125C3.16639 17.6997 2.24012 17.3318 0.891629 17.754C0.319504 17.9311 0.0471804 18.2583 0.0471804 18.9395V25.9549H0.046875ZM13.8591 20.2333H15.6298V24.102C15.6164 24.3197 15.6979 24.8103 16.6788 24.824C17.1691 24.8372 20.5063 24.824 20.5335 24.824V20.2196H22.3179C22.3314 20.2196 22.3179 26.4989 22.3179 26.5264C22.3314 28.0791 20.3973 28.4058 19.5119 28.4333H13.9V27.2347C13.9 27.2347 19.4985 27.2484 19.5119 27.2347C20.6562 27.1257 20.52 26.5539 20.52 26.363V25.8996H16.7469C14.9896 25.8727 13.8725 25.1095 13.8591 24.2241C13.8591 24.1426 13.9 20.2745 13.8591 20.2333ZM52.1218 15.779C51.0326 15.7519 50.2012 15.8471 49.4792 16.1603C49.2753 16.2422 48.9617 16.2422 48.9211 16.5011C49.0301 16.6094 49.057 16.7868 49.1388 16.937C49.3159 17.2097 49.6022 17.5769 49.8608 17.7677C50.1335 17.986 50.4195 18.2037 50.719 18.3945C51.264 18.7212 51.8633 18.8982 52.367 19.2258C52.6805 19.416 52.98 19.6618 53.2798 19.8795C53.4157 19.9885 53.525 20.1521 53.7021 20.2199V20.193C53.6068 20.0703 53.5793 19.8932 53.4975 19.7564L53.089 19.3479C52.6943 18.8305 52.1899 18.367 51.6584 17.986C51.2362 17.6862 50.2827 17.264 50.1057 16.7737C50.0919 16.76 50.0782 16.76 50.0782 16.7462C50.378 16.705 50.7324 16.5966 51.0048 16.5279C51.4682 16.4058 51.8901 16.4327 52.3667 16.3103C52.585 16.2419 52.8027 16.1875 53.0209 16.1194V15.9967C52.7758 15.7516 52.6125 15.4112 52.3401 15.1932C51.6456 14.5939 50.8823 14.008 50.106 13.5177C49.67 13.2316 49.1388 13.0546 48.676 12.8232C48.5258 12.7551 48.2531 12.7142 48.1448 12.578C47.899 12.2782 47.7769 11.8832 47.5861 11.529C47.1864 10.7521 46.814 9.9615 46.4693 9.15869C46.2379 8.62747 46.0739 8.09626 45.7885 7.60565C44.3716 5.28998 42.8595 3.88714 40.5032 2.51117C39.9995 2.22511 39.4002 2.10269 38.7596 1.95279C38.4192 1.92531 38.0788 1.91188 37.7381 1.8844C37.5336 1.80258 37.3159 1.54399 37.1114 1.42127C36.335 0.93096 34.3325 -0.145209 33.7601 1.27136C33.3922 2.15672 34.3051 3.02865 34.6317 3.47835C34.8638 3.79158 35.1492 4.14603 35.3132 4.49987C35.4215 4.73129 35.4353 4.96301 35.5308 5.20816C35.7622 5.82119 35.9531 6.48857 36.2391 7.04696C36.3887 7.33302 36.552 7.63282 36.7429 7.89171C36.8518 8.04161 37.0564 8.10969 37.0833 8.35485C36.8925 8.62717 36.8793 9.03596 36.7703 9.37637C36.2935 10.9157 36.4705 12.8091 37.1788 13.9531C37.3971 14.2935 37.9008 15.0427 38.6094 14.7569C39.2225 14.498 39.086 13.7351 39.2631 13.0405C39.3043 12.8906 39.2768 12.7816 39.3583 12.6726V12.6998C39.5354 13.0811 39.7262 13.449 39.917 13.8166C40.3255 14.4843 41.0613 15.1926 41.688 15.6554C42.001 15.9005 42.2599 16.3231 42.6821 16.4589V16.4315H42.6415C42.5597 16.3093 42.4369 16.2547 42.3417 16.1591C42.0965 15.914 41.8242 15.6142 41.6197 15.3419C41.0616 14.5789 40.5575 13.7345 40.0944 12.8625C39.8761 12.4403 39.6853 11.9772 39.5088 11.555C39.4401 11.3916 39.4402 11.1465 39.2906 11.0509C39.086 11.3641 38.8006 11.623 38.6363 11.9909C38.3912 12.5768 38.3505 13.2985 38.269 14.0343C38.2141 14.0614 38.2278 14.0477 38.2003 14.0752C37.765 13.9662 37.6148 13.5165 37.4515 13.1352C37.0567 12.168 36.9746 10.6153 37.3287 9.49818C37.424 9.21212 37.8468 8.31302 37.6697 8.0407C37.5873 7.78181 37.3287 7.61847 37.1791 7.41423C36.9883 7.16908 36.8112 6.8421 36.6754 6.55604C36.3487 5.7931 36.1985 4.94866 35.8441 4.18603C35.667 3.81814 35.395 3.45026 35.1633 3.13703C34.9044 2.76915 34.6183 2.51056 34.4144 2.0746C34.3463 1.9247 34.251 1.67955 34.3463 1.51591C34.3869 1.40692 34.4281 1.36601 34.5365 1.3251C34.7136 1.18893 35.2179 1.37974 35.4081 1.44752C35.8987 1.6655 36.3209 1.85631 36.7432 2.14237C36.9477 2.27854 37.1523 2.53712 37.3974 2.60551H37.67C38.106 2.70076 38.596 2.63268 39.0045 2.75541C39.7265 2.97308 40.3802 3.3138 40.9663 3.69542C42.7642 4.82593 44.222 6.43331 45.2298 8.35393C45.3931 8.66716 45.4612 8.95323 45.5977 9.2802C45.884 9.94788 46.2513 10.6287 46.5374 11.2689C46.81 11.9228 47.0961 12.5768 47.4908 13.1077C47.7091 13.3938 48.5261 13.5437 48.894 13.6933C49.1528 13.8022 49.5748 13.9247 49.8205 14.0749C50.2971 14.3472 50.7465 14.6879 51.1962 15.0011C51.4136 15.1526 52.0944 15.493 52.1218 15.779Z" fill="#00678C"/>
<path fill-rule="evenodd" clip-rule="evenodd" d="M38.226 3.94226C38.0379 3.94232 37.8505 3.96528 37.668 4.01065V4.03782H37.7086C37.8176 4.2558 38.0084 4.4057 38.1445 4.5962C38.2398 4.81419 38.3491 5.03217 38.4443 5.25015L38.4849 5.20924C38.6757 5.08682 38.7576 4.86883 38.7576 4.52843C38.6895 4.44661 38.6757 4.35136 38.608 4.2558C38.5124 4.11933 38.3491 4.05125 38.226 3.94226Z" fill="#00678C"/>
<path fill-rule="evenodd" clip-rule="evenodd" d="M23.6914 25.955H28.7993C29.3986 25.955 29.9842 25.8322 30.4473 25.6139C31.2099 25.2604 31.5916 24.7832 31.5916 24.1568V22.8492C31.5916 22.3454 31.1556 21.8551 30.3252 21.5416C29.8755 21.3645 29.3305 21.2827 28.7993 21.2827H26.6473C25.9253 21.2827 25.5849 21.0644 25.503 20.5882C25.4893 20.5338 25.4893 20.4792 25.4893 20.4248V19.621C25.4893 19.5666 25.4893 19.5257 25.503 19.4714C25.5849 19.1035 25.7754 18.9945 26.4021 18.9402C26.4565 18.9402 26.5246 18.9264 26.5792 18.9264H31.6599V17.7416H26.661C25.939 17.7416 25.5711 17.7959 25.2307 17.8912C24.1683 18.2316 23.7051 18.7494 23.7051 19.6622V20.6975C23.7051 21.5013 24.6177 22.1821 26.1298 22.3454C26.3069 22.3454 26.4702 22.3592 26.6473 22.3592H28.4864C28.5545 22.3592 28.6222 22.3592 28.6766 22.3729C29.249 22.4273 29.4804 22.5225 29.6575 22.7265C29.7528 22.8354 29.794 22.931 29.794 23.0537V24.089C29.794 24.2117 29.7122 24.3754 29.5351 24.5112C29.3849 24.6477 29.126 24.7295 28.7856 24.7564C28.7175 24.7564 28.6635 24.7701 28.5948 24.7701H23.6914V25.955ZM42.6796 23.8838C42.6796 25.1099 43.5787 25.7907 45.4178 25.9272C45.5811 25.9409 45.7582 25.9547 45.9215 25.9547H50.5529V24.7692H45.8941C44.8451 24.7692 44.4503 24.5103 44.4503 23.8838V17.741H42.6793V23.8838H42.6796ZM32.7224 23.9519V19.7297C32.7224 18.6535 33.4713 17.9999 34.9697 17.7953C35.1199 17.7678 35.2969 17.7678 35.4465 17.7678H38.8243C38.9877 17.7678 39.1379 17.7678 39.3149 17.7953C40.7996 17.9999 41.5622 18.6535 41.5622 19.7297V23.9519C41.5622 24.8241 41.2356 25.287 40.4998 25.5868L42.2571 27.167H40.1869L38.77 25.9L37.3394 25.9818H35.4462C35.1196 25.9818 34.7788 25.9412 34.3972 25.8322C33.2673 25.5321 32.7224 24.9328 32.7224 23.9519ZM34.643 23.8435C34.643 23.9116 34.6567 23.9656 34.6705 24.0343C34.7795 24.5243 35.2423 24.797 35.9368 24.797H37.5583L36.0736 23.4619H38.1438L39.4377 24.6199C39.6697 24.4972 39.833 24.3064 39.8874 24.0612C39.9011 23.9931 39.9011 23.9391 39.9011 23.8841V19.8252C39.9011 19.784 39.9011 19.73 39.8874 19.675C39.7784 19.2122 39.3155 18.9536 38.6341 18.9536H35.9371C35.147 18.9536 34.6433 19.294 34.6433 19.8252V23.8435H34.643ZM51.3705 25.955H51.6294V24.974H51.9835V24.7695H51.0163V24.974H51.3705V25.955ZM53.3592 25.955H53.5906V24.7695H53.2364L52.9235 25.5871L52.6106 24.7695H52.2427V25.955H52.4879V25.0559L52.8283 25.955H53.0053L53.3457 25.0559H53.3595V25.955H53.3592Z" fill="#CE8B2C"/>
<path fill-rule="evenodd" clip-rule="evenodd" d="M1.12161 14.9347L0.126953 10.3305H0.630997L1.20312 13.3545C1.2712 13.6677 1.32585 13.981 1.36676 14.2942L1.54383 13.436L2.26586 10.3302H2.85142L3.39637 12.6596C3.53253 13.2318 3.62778 13.7764 3.69586 14.2942C3.73677 13.9947 3.80486 13.654 3.88667 13.2864L4.47223 10.3305H4.99002L3.94132 14.9347H3.46445L2.66091 11.4339L2.53818 10.8889C2.51101 11.0932 2.4701 11.2705 2.42919 11.4339L1.62535 14.9347H1.12161ZM5.30355 12.7009C5.30355 11.9107 5.48063 11.3114 5.82103 10.8889C6.16174 10.4667 6.5974 10.2625 7.11518 10.2625C7.44185 10.2625 7.75539 10.3443 8.02771 10.5348C8.30004 10.7253 8.51802 10.9979 8.68165 11.3521C8.83156 11.7196 8.91337 12.1419 8.91337 12.6459C8.91337 13.327 8.76347 13.872 8.44994 14.3076C8.10953 14.7845 7.66013 15.0159 7.11518 15.0159C6.55649 15.0159 6.10709 14.7708 5.76669 14.2939C5.45315 13.8451 5.30355 13.3139 5.30355 12.7009ZM5.82103 12.7009C5.82103 13.273 5.94345 13.7089 6.18891 14.0222C6.4478 14.3354 6.7473 14.499 7.10144 14.499C7.46932 14.499 7.78256 14.3354 8.02771 14.0222C8.27286 13.7089 8.39559 13.2458 8.39559 12.6328C8.39559 12.2243 8.34125 11.8836 8.20478 11.5706C8.10953 11.3255 7.95963 11.1347 7.76882 10.9985C7.58059 10.8562 7.35085 10.7796 7.11488 10.7805C6.73326 10.7805 6.42002 10.9301 6.18861 11.2437C5.94345 11.5566 5.82103 12.0469 5.82103 12.7009ZM9.53954 14.9347V10.3305H11.215C11.5554 10.3305 11.8143 10.3714 11.9779 10.4667C12.155 10.5485 12.2912 10.6847 12.3864 10.8889C12.4954 11.0932 12.5501 11.3249 12.5501 11.5835C12.5501 11.9379 12.4682 12.2102 12.2777 12.4282C12.1004 12.6462 11.8418 12.7824 11.4876 12.8504C11.6375 12.9323 11.7328 13.0141 11.8146 13.0956C11.9645 13.2727 12.0872 13.4635 12.2097 13.6812L12.8633 14.9344H12.2368L11.7328 13.9807C11.5285 13.6128 11.3924 13.3542 11.2834 13.2315C11.1881 13.0953 11.0926 12.9997 10.9973 12.9588C10.9021 12.9179 10.7793 12.8907 10.616 12.8907H10.0439V14.9341H9.53954V14.9347ZM10.0436 12.3601H11.106C11.3374 12.3601 11.5145 12.333 11.6372 12.2783C11.7597 12.224 11.8549 12.1284 11.9367 12.0194C12.0048 11.8967 12.032 11.7468 12.032 11.5835C12.032 11.3521 11.9639 11.175 11.8277 11.0388C11.6916 10.9027 11.5008 10.8346 11.2284 10.8346H10.0433V12.3601H10.0436ZM13.3264 14.9347V10.3305H13.8305V12.619L15.6967 10.3305H16.3776L14.7839 12.1968L16.4456 14.9347H15.7783L14.4435 12.619L13.8305 13.3411V14.9347H13.3264ZM16.6774 13.45L17.1542 13.4091C17.1814 13.6543 17.2361 13.8585 17.3313 13.9947C17.4131 14.1446 17.5493 14.2536 17.7126 14.3351C17.8763 14.4304 18.0668 14.4713 18.2713 14.4713C18.5708 14.4713 18.7888 14.3894 18.9524 14.2536C19.1158 14.1037 19.1976 13.9129 19.1976 13.6815C19.1976 13.5453 19.1704 13.4363 19.1158 13.3273C19.0614 13.2321 18.9659 13.1502 18.8431 13.0822C18.7207 13.0141 18.4618 12.9188 18.0668 12.8098C17.7126 12.7009 17.4537 12.5919 17.3038 12.4829C17.1522 12.3857 17.0298 12.2492 16.9497 12.0878C16.8679 11.9242 16.827 11.7337 16.827 11.5294C16.827 11.1478 16.9497 10.8483 17.1811 10.6166C17.4263 10.3714 17.7532 10.2625 18.1617 10.2625C18.434 10.2625 18.6792 10.3168 18.8972 10.4258C19.1014 10.5348 19.265 10.6981 19.3875 10.9027C19.5065 11.1293 19.5674 11.3821 19.5645 11.6381L19.0877 11.679C19.0739 11.3795 18.9787 11.1615 18.8288 11.0116C18.6651 10.8617 18.4609 10.7937 18.1751 10.7937C17.8888 10.7937 17.6711 10.8617 17.5346 10.9845C17.4607 11.0427 17.4014 11.1173 17.3612 11.2024C17.321 11.2875 17.3012 11.3807 17.3032 11.4748C17.3032 11.6656 17.3579 11.8018 17.4669 11.9107C17.5755 12.006 17.821 12.115 18.2023 12.224C18.5836 12.3192 18.8425 12.4148 18.9924 12.4829C19.2241 12.6053 19.4009 12.7552 19.5099 12.946C19.6326 13.1368 19.687 13.3682 19.687 13.6271C19.6886 13.8804 19.6227 14.1295 19.4962 14.3488C19.3734 14.5668 19.2101 14.7305 18.9921 14.8391C18.7879 14.9616 18.529 15.0162 18.2292 15.0162C17.766 15.0162 17.3847 14.8801 17.1124 14.594C16.8401 14.3079 16.6908 13.9266 16.6774 13.45ZM22.6435 14.9347L21.6491 10.3305H22.1532L22.7253 13.3545C22.7934 13.6677 22.8477 13.981 22.8889 14.2942L23.066 13.436L23.7877 10.3302H24.3736L24.9182 12.6596C25.0462 13.199 25.1463 13.7445 25.218 14.2942C25.2589 13.9947 25.327 13.654 25.3951 13.2864L25.9944 10.3305H26.5119L25.4632 14.9347H24.9863L24.1825 11.4339L24.06 10.8889C24.0329 11.0932 23.9919 11.2705 23.951 11.4339L23.1475 14.9347H22.6435ZM27.0568 14.9347V10.3305H27.5609V14.9347H27.0568ZM29.3997 14.9347V10.8755H28.1602V10.3305H31.1432V10.8755H29.8906V14.9347H29.3997ZM31.6341 14.9347V10.3305H32.1379V12.224H34.0991V10.3305H34.6034V14.9347H34.0991V12.7689H32.1379V14.9347H31.6341Z" fill="#00678C"/>
</svg>
