<svg width="32" height="31" viewBox="0 0 32 31" fill="none" xmlns="http://www.w3.org/2000/svg">
<path d="M0.576172 0.266235H31.0437V30.7337H0.576172V0.266235ZM28.5479 23.4672C28.3257 22.0771 27.4206 20.9092 24.7356 19.82C23.8013 19.382 22.7628 19.0774 22.4544 18.3728C22.3388 17.9539 22.3211 17.7254 22.396 17.4778C22.5864 16.6577 23.5575 16.4115 24.3192 16.64C24.8143 16.7923 25.2713 17.1732 25.5582 17.7825C26.8709 16.9243 26.8709 16.9243 27.7862 16.3543C27.4434 15.8212 27.2733 15.5914 27.0423 15.3641C26.2425 14.4692 25.1774 14.0122 23.4446 14.0515L22.5496 14.1645C21.6914 14.374 20.8739 14.831 20.3788 15.4403C18.9316 17.0792 19.3492 19.9355 21.1011 21.1162C22.8339 22.411 25.3678 22.6954 25.6915 23.9154C25.9962 25.4006 24.5871 25.8767 23.1957 25.7053C22.1662 25.4768 21.5962 24.9614 20.9678 24.0093L18.6447 25.3435C18.9113 25.9529 19.2159 26.2182 19.6729 26.7514C21.8818 28.9806 27.4041 28.8663 28.3955 25.4768C28.4323 25.3626 28.7002 24.5818 28.4895 23.3822L28.5479 23.4672ZM17.1441 14.2699H14.2904C14.2904 16.7301 14.2789 19.1751 14.2789 21.6392C14.2789 23.2032 14.3589 24.639 14.1037 25.0807C13.6848 25.9554 12.6058 25.8437 12.1157 25.6901C11.613 25.4413 11.3579 25.0985 11.0621 24.6047C10.9821 24.4714 10.9224 24.3559 10.9008 24.3559L8.58404 25.784C8.97123 26.5838 9.53615 27.2719 10.2648 27.7098C11.3502 28.3573 12.8089 28.5667 14.3361 28.224C15.3301 27.9371 16.187 27.3468 16.6351 26.4327C17.2825 25.2521 17.1454 23.8049 17.1391 22.1851C17.1543 19.5775 17.1391 16.9688 17.1391 14.3409L17.1441 14.2699Z" fill="#F7DF1E"/>
</svg>
