<svg width="21" height="32" viewBox="0 0 21 32" fill="none" xmlns="http://www.w3.org/2000/svg">
<path d="M5.71995 31.0329C8.486 31.0329 10.7309 28.788 10.7309 26.022V21.011H5.71995C2.9539 21.011 0.708984 23.2559 0.708984 26.022C0.708984 28.788 2.9539 31.0329 5.71995 31.0329Z" fill="#0ACF83"/>
<path d="M0.708984 15.9999C0.708984 13.2338 2.9539 10.9889 5.71995 10.9889H10.7309V21.0108H5.71995C2.9539 21.0108 0.708984 18.7659 0.708984 15.9999Z" fill="#A259FF"/>
<path d="M0.708984 5.97801C0.708984 3.21195 2.9539 0.967041 5.71995 0.967041H10.7309V10.989H5.71995C2.9539 10.989 0.708984 8.74406 0.708984 5.97801Z" fill="#F24E1E"/>
<path d="M10.7324 0.967041H15.7434C18.5094 0.967041 20.7544 3.21195 20.7544 5.97801C20.7544 8.74406 18.5094 10.989 15.7434 10.989H10.7324V0.967041Z" fill="#FF7262"/>
<path d="M20.7544 15.9999C20.7544 18.7659 18.5094 21.0108 15.7434 21.0108C12.9773 21.0108 10.7324 18.7659 10.7324 15.9999C10.7324 13.2338 12.9773 10.9889 15.7434 10.9889C18.5094 10.9889 20.7544 13.2338 20.7544 15.9999Z" fill="#1ABCFE"/>
</svg>
