<svg width="31" height="30" viewBox="0 0 31 30" fill="none" xmlns="http://www.w3.org/2000/svg">
<path d="M6.07806 0.342896H25.4956C28.4395 0.342896 30.8197 2.7231 30.8197 5.66705V24.3329C30.8197 27.2768 28.4395 29.6571 25.4956 29.6571H6.07806C3.13412 29.6571 0.753906 27.2768 0.753906 24.3329V5.66705C0.753906 2.7231 3.13412 0.342896 6.07806 0.342896Z" fill="#001E36"/>
<path d="M7.51758 20.9003V8.0096C7.51758 7.92191 7.55516 7.8718 7.64285 7.8718C7.85582 7.8718 8.05626 7.8718 8.34439 7.85927C8.64505 7.84674 8.95823 7.84674 9.29647 7.83421C9.63471 7.82169 9.99801 7.82169 10.3864 7.80916C10.7747 7.79663 11.1505 7.79663 11.5264 7.79663C12.5536 7.79663 13.4055 7.9219 14.107 8.18498C14.7334 8.39795 15.3096 8.74871 15.7857 9.21223C16.1865 9.61311 16.4997 10.1017 16.7002 10.6404C16.8881 11.1665 16.9883 11.7052 16.9883 12.2689C16.9883 13.3463 16.7378 14.2357 16.2367 14.9373C15.7356 15.6388 15.034 16.1649 14.2197 16.4656C13.3679 16.7788 12.4283 16.8915 11.4011 16.8915C11.1004 16.8915 10.9 16.8915 10.7747 16.879C10.6494 16.8665 10.474 16.8665 10.236 16.8665V20.8878C10.2486 20.9755 10.1859 21.0506 10.0982 21.0632H7.66791C7.56769 21.0632 7.51758 21.0131 7.51758 20.9003ZM10.2486 10.2896V14.4988C10.4239 14.5113 10.5868 14.5239 10.7371 14.5239H11.4011C11.8896 14.5239 12.3782 14.4487 12.8417 14.2984C13.2426 14.1856 13.5934 13.9476 13.869 13.6344C14.1321 13.3212 14.2573 12.8953 14.2573 12.3441C14.2699 11.9557 14.1696 11.5674 13.9692 11.2291C13.7562 10.9034 13.4556 10.6529 13.0923 10.5151C12.6288 10.3272 12.1277 10.252 11.614 10.2645C11.2883 10.2645 11.0002 10.2645 10.7622 10.2771C10.5116 10.2645 10.3362 10.2771 10.2486 10.2896ZM24.8054 13.7346C24.4296 13.5342 24.0287 13.3964 23.6028 13.3087C23.1393 13.2085 22.6757 13.1458 22.1997 13.1458C21.9492 13.1333 21.6861 13.1709 21.4481 13.2335C21.2852 13.2711 21.1474 13.3588 21.0597 13.4841C20.9971 13.5843 20.9595 13.7096 20.9595 13.8223C20.9595 13.9351 21.0096 14.0478 21.0848 14.148C21.1975 14.2858 21.3478 14.3986 21.5107 14.4863C21.7988 14.6366 22.0995 14.7744 22.4001 14.8997C23.0766 15.1252 23.7281 15.4384 24.3294 15.8142C24.7428 16.0773 25.081 16.428 25.319 16.854C25.5195 17.2548 25.6197 17.6933 25.6072 18.1443C25.6197 18.7331 25.4443 19.3219 25.1186 19.8104C24.7678 20.3115 24.2793 20.6999 23.7155 20.9254C23.1017 21.1884 22.35 21.3262 21.4481 21.3262C20.8718 21.3262 20.3081 21.2761 19.7443 21.1634C19.3059 21.0882 18.8674 20.9504 18.4665 20.7625C18.3788 20.7124 18.3162 20.6247 18.3287 20.5245V18.3447C18.3287 18.3071 18.3413 18.257 18.3788 18.232C18.4164 18.2069 18.454 18.2194 18.4916 18.2445C18.9802 18.5326 19.4938 18.7331 20.045 18.8583C20.521 18.9836 21.0221 19.0463 21.5232 19.0463C21.9993 19.0463 22.3375 18.9836 22.563 18.8709C22.7634 18.7832 22.9012 18.5702 22.9012 18.3447C22.9012 18.1693 22.801 18.0065 22.6006 17.8436C22.4001 17.6808 21.9867 17.4929 21.3729 17.2548C20.734 17.0293 20.1452 16.7287 19.594 16.3529C19.2057 16.0773 18.8799 15.714 18.6419 15.288C18.4415 14.8871 18.3413 14.4487 18.3538 14.0102C18.3538 13.4715 18.5041 12.9579 18.7797 12.4944C19.0929 11.9933 19.5564 11.5924 20.0951 11.3419C20.6839 11.0412 21.423 10.9034 22.3125 10.9034C22.8261 10.9034 23.3522 10.941 23.8659 11.0162C24.2417 11.0663 24.605 11.1665 24.9432 11.3043C24.9933 11.3168 25.0434 11.3669 25.0685 11.4171C25.081 11.4672 25.0935 11.5173 25.0935 11.5674V13.6094C25.0935 13.6595 25.0685 13.7096 25.0309 13.7346C24.9182 13.7597 24.8555 13.7597 24.8054 13.7346Z" fill="#31A8FF"/>
</svg>
