<svg width="45" height="52" viewBox="0 0 45 52" fill="none" xmlns="http://www.w3.org/2000/svg">
<g clip-path="url(#clip0_234_1367)">
<path d="M23.752 0.498931C23.1588 0.151398 22.428 0.151398 21.8348 0.498931L17.1387 3.25031C17.2302 3.36469 17.3096 3.48984 17.3743 3.62358L26.7135 4.33437C26.9949 3.69215 27.6092 3.23333 28.334 3.18336L23.752 0.498931Z" fill="white"/>
<path d="M30.1875 4.26965C30.3119 4.52746 30.3817 4.8173 30.3817 5.12369C30.3817 5.38945 30.3291 5.64277 30.2341 5.87352L38.1156 13.5565C38.3529 13.4695 38.6089 13.422 38.8758 13.422C39.429 13.422 39.9355 13.6259 40.3259 13.9637L43.354 11.9837L30.1875 4.26965Z" fill="white"/>
<path d="M44.4766 12.7771L41.0214 15.0486C41.0806 15.2523 41.1123 15.468 41.1123 15.6912C41.1123 16.3149 40.8644 16.8799 40.4629 17.2901L44.2293 28.4791C44.4791 28.5119 44.7141 28.5938 44.9243 28.7146V14.0263C44.9243 13.5624 44.7614 13.122 44.4766 12.7771Z" fill="white"/>
<path d="M44.9241 32.1008C44.7673 32.1909 44.5971 32.2592 44.4169 32.3018L41.498 40.843L43.9658 39.3971C44.5588 39.0496 44.9241 38.4078 44.9241 37.7128V32.1008Z" fill="white"/>
<path d="M39.7949 41.8412L43.1136 32.1426C42.6555 31.9064 42.3034 31.4886 42.1494 30.9827L35.2496 29.843C34.9799 31.2881 34.5471 32.5674 33.9512 33.6814L38.4294 42.6412L39.7949 41.8412Z" fill="white"/>
<path d="M37.3221 43.29L33.1538 34.9446C32.8871 35.3044 32.5983 35.6419 32.2875 35.9572C30.734 37.5339 28.7096 38.5466 26.2146 38.9956L24.4883 42.6097C24.883 43.0054 25.1511 43.5303 25.2263 44.1168L35.2469 44.506L37.3221 43.29Z" fill="white"/>
<path d="M33.1709 45.7216L25.0683 45.4078C24.7831 46.1391 24.1799 46.7075 23.4316 46.937V51.3898C23.5415 51.3504 23.6485 51.3005 23.7513 51.2402L33.1709 45.7216Z" fill="white"/>
<path d="M22.1537 51.3897V46.9901C21.3429 46.8142 20.6747 46.2476 20.3493 45.494L12.918 46.0163L21.8342 51.2402C21.9371 51.3005 22.044 51.3504 22.1537 51.3897Z" fill="white"/>
<path d="M10.9497 44.8631L20.1465 44.2107C20.1921 43.7141 20.3757 43.2581 20.6581 42.8825L17.9592 39.2635H12.7626C12.4096 39.2635 12.1236 38.9733 12.1236 38.6152V37.0087L8.49414 43.4245L10.9497 44.8631Z" fill="white"/>
<path d="M7.38738 42.7761L12.1236 34.4052V32.9709L3.59765 31.1494C3.42873 31.461 3.17807 31.7206 2.875 31.8984L5.56925 41.711L7.38738 42.7761Z" fill="white"/>
<path d="M3.96374 40.7699L1.60666 32.1325C1.24881 32.0733 0.924266 31.9134 0.662109 31.6826V37.7127C0.662109 38.4077 1.02742 39.0495 1.62045 39.397L3.96374 40.7699Z" fill="white"/>
<path d="M0.662109 28.7437C0.944311 28.4952 1.29881 28.329 1.68931 28.2819L5.43946 18.0545C5.04576 17.6454 4.80314 17.086 4.80314 16.4691C4.80314 16.1857 4.85432 15.9145 4.94782 15.6644L0.95561 12.9919C0.766999 13.2967 0.662109 13.6539 0.662109 14.0262V28.7437Z" fill="white"/>
<path d="M1.97852 12.1322L5.72547 14.6328C6.09432 14.3605 6.54834 14.2 7.03932 14.2C7.17721 14.2 7.31219 14.2126 7.44318 14.2369L13.9948 5.45147C13.9434 5.36187 13.899 5.26774 13.8621 5.1698L1.97852 12.1322Z" fill="white"/>
<path d="M42.9718 28.754L39.3232 17.915C39.179 17.9447 39.0297 17.9603 38.8768 17.9603C38.6964 17.9603 38.5211 17.9386 38.353 17.8977L35.3242 22.4327C35.4974 23.507 35.5839 24.6698 35.5839 25.9215C35.5839 26.8497 35.5364 27.7294 35.4412 28.561L42.2038 29.6782C42.3571 29.2936 42.6283 28.9703 42.9718 28.754Z" fill="white"/>
<path d="M37.2464 17.2436C37.132 17.12 37.0311 16.9834 36.9463 16.8362L33.7305 17.7901C34.241 18.6479 34.6461 19.614 34.9458 20.6883L37.2464 17.2436Z" fill="white"/>
<path d="M36.6429 15.5749C36.6659 15.1145 36.8239 14.6904 37.0776 14.3424L29.3765 6.83521C29.113 6.97986 28.8125 7.06375 28.4932 7.06836L26.3047 12.8672C28.758 13.3296 30.752 14.3487 32.2867 15.9244C32.5214 16.1599 32.7438 16.4082 32.9534 16.6694L36.6429 15.5749Z" fill="white"/>
<path d="M3.805 29.8682L12.1248 31.6457V30.2561L7.22537 18.7304C7.16422 18.7355 7.10237 18.7381 7.03992 18.7381C6.87921 18.7381 6.72247 18.7209 6.57137 18.6882L2.94727 28.5718C3.38996 28.8584 3.70902 29.3241 3.805 29.8682Z" fill="white"/>
<path d="M8.5957 14.84C8.93584 15.1748 9.17147 15.6183 9.24813 16.1153L12.124 16.8741V13.2275C12.124 12.8695 12.4101 12.5792 12.763 12.5792H18.7217L16.0345 6.38167C15.9111 6.40698 15.7834 6.42027 15.6527 6.42027C15.412 6.42027 15.1817 6.37525 14.9695 6.29309L8.5957 14.84Z" fill="white"/>
<path d="M9.07543 17.4094C8.92535 17.7435 8.69777 18.0341 8.41602 18.2577L12.1247 26.9821V18.214L9.07543 17.4094Z" fill="white"/>
<path d="M27.2827 6.65325L25.0085 12.6791C24.3704 12.6125 23.7045 12.5792 23.0115 12.5792H20.1191L17.1387 5.70534C17.3171 5.48382 17.4483 5.22164 17.5168 4.93457L26.6147 5.62701C26.7231 6.03894 26.9617 6.397 27.2827 6.65325Z" fill="white"/>
<path d="M23.3796 41.9562C23.1609 41.8942 22.93 41.8611 22.6917 41.8611C22.3255 41.8611 21.9775 41.9391 21.6627 42.0798L19.5625 39.2636H23.0105C23.5928 39.2636 24.1556 39.2404 24.6991 39.194L23.3796 41.9562Z" fill="white"/>
<path d="M23.0097 34.479C25.2585 34.479 26.958 33.7918 28.108 32.4173C29.2835 31.017 29.8712 29.0461 29.8712 26.5048V25.3378C29.8712 22.7965 29.2835 20.8386 28.108 19.4642C26.958 18.0638 25.2585 17.3636 23.0097 17.3636H18.3206C17.9677 17.3636 17.6816 17.6539 17.6816 18.012V33.8306C17.6816 34.1887 17.9677 34.479 18.3206 34.479H23.0097Z" fill="white"/>
</g>
<defs>
<clipPath id="clip0_234_1367">
<rect width="44.3031" height="51.4324" fill="white" transform="translate(0.646484 0.153442)"/>
</clipPath>
</defs>
</svg>
