<svg width="48" height="52" viewBox="0 0 48 52" fill="none" xmlns="http://www.w3.org/2000/svg">
<path d="M23.8105 29.507C24.2702 29.507 24.7299 29.4297 25.1897 29.2753C25.6647 29.1208 26.1781 28.8814 26.7298 28.5571L44.7055 18.0389C45.6403 17.4829 46.2992 16.9732 46.6823 16.5099C47.0808 16.0311 47.28 15.4673 47.28 14.8186C47.28 14.1854 47.0808 13.6371 46.6823 13.1737C46.2992 12.6949 45.6403 12.1775 44.7055 11.6215L26.7298 1.10332C26.1781 0.778971 25.6647 0.539571 25.1897 0.38512C24.7299 0.230668 24.2702 0.153442 23.8105 0.153442C23.3354 0.153442 22.868 0.230668 22.4083 0.38512C21.9485 0.539571 21.4351 0.778971 20.8681 1.10332L2.89243 11.6215C1.95764 12.1775 1.29102 12.6949 0.892579 13.1737C0.509466 13.6371 0.317909 14.1854 0.317909 14.8186C0.317909 15.4673 0.509466 16.0311 0.892579 16.5099C1.29102 16.9732 1.95764 17.4829 2.89243 18.0389L20.8681 28.5571C21.4351 28.8814 21.9485 29.1208 22.4083 29.2753C22.868 29.4297 23.3354 29.507 23.8105 29.507ZM23.8105 40.9286C24.2242 40.9286 24.6227 40.836 25.0058 40.6506C25.3889 40.4653 25.8256 40.2336 26.316 39.9556L46.0617 28.2096C46.4908 27.947 46.8049 27.6381 47.0042 27.2829C47.2034 26.9122 47.303 26.5492 47.303 26.194C47.303 25.7152 47.1574 25.2982 46.8662 24.9429C46.5904 24.5722 46.2916 24.3097 45.9698 24.1552L24.684 36.5499C24.5154 36.6426 24.3545 36.7198 24.2012 36.7816C24.0633 36.8434 23.933 36.8743 23.8105 36.8743C23.6725 36.8743 23.5269 36.8434 23.3737 36.7816C23.2358 36.7198 23.0825 36.6426 22.914 36.5499L1.62816 24.1552C1.30634 24.3097 0.999851 24.5722 0.708685 24.9429C0.432843 25.2982 0.294922 25.7152 0.294922 26.194C0.294922 26.5492 0.394531 26.9122 0.593751 27.2829C0.808294 27.6381 1.13011 27.947 1.5592 28.2096L21.2819 39.9556C21.7723 40.2336 22.209 40.4653 22.5921 40.6506C22.9753 40.836 23.3814 40.9286 23.8105 40.9286ZM23.8105 51.5858C24.2242 51.5858 24.6227 51.4931 25.0058 51.3078C25.3889 51.1379 25.8256 50.9062 26.316 50.6128L46.0617 38.8667C46.4755 38.6196 46.782 38.3184 46.9812 37.9632C47.1957 37.5925 47.303 37.2218 47.303 36.8511C47.303 36.3878 47.1574 35.9785 46.8662 35.6232C46.5904 35.2526 46.2916 34.9823 45.9698 34.8124L24.684 47.2303C24.5154 47.3229 24.3545 47.4002 24.2012 47.4619C24.0633 47.5237 23.933 47.5546 23.8105 47.5546C23.6725 47.5546 23.5269 47.5237 23.3737 47.4619C23.2358 47.4002 23.0825 47.3229 22.914 47.2303L1.62816 34.8124C1.30634 34.9823 0.999851 35.2526 0.708685 35.6232C0.432843 35.9785 0.294922 36.3878 0.294922 36.8511C0.294922 37.2218 0.394531 37.5925 0.593751 37.9632C0.808294 38.3184 1.13011 38.6196 1.5592 38.8667L21.2819 50.6128C21.7723 50.9062 22.209 51.1379 22.5921 51.3078C22.9753 51.4931 23.3814 51.5858 23.8105 51.5858Z" fill="white"/>
</svg>
