<svg width="35" height="31" viewBox="0 0 35 31" fill="none" xmlns="http://www.w3.org/2000/svg">
<path d="M34.5471 15.5036C34.5471 13.2178 31.6847 11.0516 27.296 9.70833C28.3088 5.23531 27.8587 1.67659 25.8754 0.537236C25.4182 0.26998 24.8837 0.143385 24.2999 0.143385V1.71176C24.6235 1.71176 24.8837 1.77505 25.1017 1.89461C26.0582 2.44319 26.4732 4.53201 26.1496 7.21863C26.0723 7.87974 25.9457 8.57601 25.791 9.28635C24.4125 8.94876 22.9074 8.68854 21.325 8.51974C20.3755 7.21863 19.3909 6.03708 18.3992 5.00322C20.692 2.87221 22.8441 1.70472 24.307 1.70472V0.136353C22.3729 0.136353 19.841 1.51483 17.281 3.90607C14.7209 1.5289 12.189 0.164485 10.255 0.164485V1.73285C11.7108 1.73285 13.8699 2.89331 16.1627 5.01025C15.1781 6.04411 14.1935 7.21863 13.2581 8.51974C11.6686 8.68854 10.1635 8.94876 8.78505 9.29338C8.62329 8.59007 8.50373 7.90787 8.41933 7.2538C8.08877 4.56717 8.49669 2.47836 9.44615 1.92275C9.65714 1.79615 9.93143 1.73989 10.255 1.73989V0.171518C9.66418 0.171518 9.12967 0.298113 8.66548 0.565368C6.6892 1.70472 6.24612 5.25641 7.26591 9.71536C2.89135 11.0657 0.0429688 13.2249 0.0429688 15.5036C0.0429688 17.7893 2.90542 19.9555 7.29404 21.2988C6.28128 25.7718 6.7314 29.3305 8.71472 30.4699C9.17187 30.7371 9.70638 30.8637 10.2972 30.8637C12.2312 30.8637 14.7631 29.4853 17.3232 27.094C19.8832 29.4712 22.4151 30.8356 24.3492 30.8356C24.94 30.8356 25.4745 30.709 25.9387 30.4418C27.9149 29.3024 28.358 25.7507 27.3382 21.2918C31.6987 19.9484 34.5471 17.7823 34.5471 15.5036ZM25.3901 10.8125C25.1298 11.7198 24.8063 12.6552 24.4406 13.5906C24.1523 13.0279 23.8498 12.4653 23.5193 11.9026C23.1958 11.34 22.8511 10.7914 22.5065 10.2569C23.5052 10.4046 24.4687 10.5875 25.3901 10.8125ZM22.1689 18.3027C21.6204 19.2522 21.0577 20.1524 20.474 20.9893C19.426 21.0808 18.3641 21.13 17.295 21.13C16.233 21.13 15.1711 21.0808 14.1302 20.9964C13.5464 20.1594 12.9767 19.2662 12.4282 18.3238C11.8937 17.4025 11.4084 16.4671 10.9653 15.5247C11.4013 14.5822 11.8937 13.6398 12.4211 12.7185C12.9697 11.769 13.5324 10.8688 14.1161 10.0318C15.164 9.94042 16.226 9.89119 17.295 9.89119C18.357 9.89119 19.419 9.94042 20.4599 10.0248C21.0436 10.8617 21.6133 11.7549 22.1619 12.6974C22.6964 13.6187 23.1817 14.5541 23.6248 15.4965C23.1817 16.439 22.6964 17.3814 22.1689 18.3027ZM24.4406 17.3884C24.8204 18.3308 25.1439 19.2733 25.4112 20.1876C24.4898 20.4126 23.5193 20.6025 22.5136 20.7502C22.8582 20.2087 23.2028 19.6531 23.5263 19.0834C23.8498 18.5207 24.1523 17.9511 24.4406 17.3884ZM17.3091 24.8927C16.655 24.2175 16.001 23.465 15.3539 22.6421C15.9869 22.6702 16.6339 22.6913 17.288 22.6913C17.9491 22.6913 18.6032 22.6773 19.2432 22.6421C18.6102 23.465 17.9561 24.2175 17.3091 24.8927ZM12.0765 20.7502C11.0778 20.6025 10.1143 20.4197 9.19296 20.1946C9.45319 19.2873 9.77671 18.3519 10.1424 17.4165C10.4308 17.9792 10.7332 18.5418 11.0638 19.1045C11.3943 19.6671 11.7319 20.2157 12.0765 20.7502ZM17.2739 6.11444C17.928 6.78962 18.5821 7.54215 19.2291 8.36502C18.5961 8.33689 17.9491 8.31579 17.295 8.31579C16.6339 8.31579 15.9799 8.32985 15.3398 8.36502C15.9728 7.54215 16.6269 6.78962 17.2739 6.11444ZM12.0695 10.2569C11.7249 10.7985 11.3802 11.3541 11.0567 11.9237C10.7332 12.4864 10.4308 13.049 10.1424 13.6117C9.76264 12.6692 9.43912 11.7268 9.17187 10.8125C10.0932 10.5945 11.0638 10.4046 12.0695 10.2569ZM5.70457 19.0623C3.21487 18.0003 1.60431 16.6077 1.60431 15.5036C1.60431 14.3994 3.21487 12.9998 5.70457 11.9448C6.30942 11.6846 6.97052 11.4525 7.65273 11.2345C8.05361 12.613 8.58109 14.0477 9.23516 15.5176C8.58812 16.9805 8.06768 18.4082 7.67383 19.7797C6.97755 19.5616 6.31645 19.3225 5.70457 19.0623ZM9.48835 29.1125C8.53186 28.5639 8.11691 26.4751 8.44043 23.7885C8.51779 23.1274 8.64439 22.4311 8.79911 21.7208C10.1776 22.0584 11.6827 22.3186 13.2651 22.4874C14.2146 23.7885 15.1992 24.97 16.1908 26.0039C13.8981 28.1349 11.746 29.3024 10.2831 29.3024C9.9666 29.2954 9.69934 29.2321 9.48835 29.1125ZM26.1707 23.7533C26.5013 26.4399 26.0934 28.5288 25.1439 29.0844C24.9329 29.211 24.6586 29.2672 24.3351 29.2672C22.8793 29.2672 20.7201 28.1068 18.4274 25.9898C19.412 24.956 20.3966 23.7815 21.332 22.4803C22.9215 22.3116 24.4265 22.0513 25.805 21.7067C25.9668 22.417 26.0934 23.0993 26.1707 23.7533ZM28.8785 19.0623C28.2736 19.3225 27.6125 19.5546 26.9303 19.7726C26.5294 18.3941 26.0019 16.9594 25.3479 15.4895C25.9949 14.0266 26.5154 12.5989 26.9092 11.2275C27.6055 11.4455 28.2666 11.6846 28.8855 11.9448C31.3752 13.0068 32.9858 14.3994 32.9858 15.5036C32.9787 16.6077 31.3682 18.0073 28.8785 19.0623Z" fill="#61DAFB"/>
<path d="M17.2883 18.7178C19.0634 18.7178 20.5024 17.2788 20.5024 15.5037C20.5024 13.7286 19.0634 12.2896 17.2883 12.2896C15.5132 12.2896 14.0742 13.7286 14.0742 15.5037C14.0742 17.2788 15.5132 18.7178 17.2883 18.7178Z" fill="#61DAFB"/>
</svg>
