<svg width="16" height="16" viewBox="0 0 16 16" fill="none" xmlns="http://www.w3.org/2000/svg">
<path d="M8.08912 15.751V12.7484C11.277 12.7484 13.7292 9.59271 12.5184 6.25315C12.0586 5.0123 11.0778 4.01656 9.83632 3.57231C6.49518 2.3621 3.33795 4.81315 3.33795 7.99952H0.333984C0.333984 2.92891 5.23841 -1.02342 10.5567 0.631043C12.8863 1.35104 14.7254 3.20465 15.4458 5.51783C17.101 10.8489 13.1621 15.751 8.08912 15.751Z" fill="#0080FF"/>
<path fill-rule="evenodd" clip-rule="evenodd" d="M8.0902 12.7485H5.10156V9.76123H8.0902V12.7485Z" fill="#0080FF"/>
<path fill-rule="evenodd" clip-rule="evenodd" d="M5.09973 15.0462H2.80078V12.7483H5.09973V15.0462Z" fill="#0080FF"/>
<path fill-rule="evenodd" clip-rule="evenodd" d="M2.80221 12.7483H0.871094V10.8334H2.80221V12.7483Z" fill="#0080FF"/>
</svg>
