<svg width="28" height="21" viewBox="0 0 28 21" fill="none" xmlns="http://www.w3.org/2000/svg">
<path d="M23.1299 2.05051C21.4148 1.2632 19.6047 0.701774 17.7451 0.380292C17.7282 0.37714 17.7107 0.379396 17.6952 0.386739C17.6796 0.394081 17.6668 0.406136 17.6585 0.421188C17.4259 0.834883 17.1683 1.37446 16.988 1.79852C14.9546 1.49406 12.9315 1.49406 10.9399 1.79852C10.7595 1.36498 10.4925 0.834883 10.259 0.421188C10.2503 0.406479 10.2374 0.394719 10.222 0.387443C10.2066 0.380168 10.1893 0.377714 10.1724 0.380402C8.31261 0.701137 6.50241 1.26251 4.78745 2.0504C4.77278 2.05667 4.76042 2.06733 4.75207 2.08093C1.32235 7.20489 0.382744 12.2029 0.843728 17.1389C0.845032 17.151 0.848747 17.1627 0.854655 17.1733C0.860562 17.1839 0.868542 17.1932 0.87812 17.2007C3.14094 18.8626 5.33287 19.8714 7.48413 20.54C7.50086 20.545 7.51871 20.5448 7.5353 20.5394C7.55189 20.5339 7.56642 20.5236 7.57695 20.5096C8.08577 19.8147 8.53937 19.0819 8.92838 18.3114C8.93372 18.3009 8.93677 18.2893 8.93733 18.2775C8.93789 18.2657 8.93594 18.2539 8.9316 18.2429C8.92727 18.2318 8.92066 18.2219 8.9122 18.2136C8.90374 18.2054 8.89362 18.199 8.88252 18.1949C8.16293 17.922 7.47785 17.5892 6.81878 17.2113C6.80676 17.2042 6.79667 17.1943 6.78939 17.1824C6.78211 17.1706 6.77786 17.1571 6.77704 17.1432C6.77621 17.1292 6.77882 17.1153 6.78464 17.1027C6.79046 17.09 6.79931 17.079 6.8104 17.0705C6.94907 16.9666 7.08785 16.8586 7.22024 16.7493C7.23201 16.7396 7.24625 16.7334 7.26136 16.7314C7.27647 16.7293 7.29186 16.7315 7.30578 16.7378C11.6354 18.7145 16.3226 18.7145 20.6011 16.7378C20.6151 16.7311 20.6306 16.7286 20.6459 16.7304C20.6612 16.7323 20.6757 16.7385 20.6877 16.7482C20.8202 16.8574 20.9588 16.9666 21.0986 17.0705C21.1097 17.0789 21.1186 17.0898 21.1245 17.1024C21.1304 17.1151 21.1331 17.1289 21.1324 17.1428C21.1317 17.1567 21.1276 17.1702 21.1204 17.1821C21.1133 17.1941 21.1033 17.204 21.0913 17.2112C20.432 17.5963 19.7414 17.925 19.0267 18.1938C19.0156 18.198 19.0055 18.2046 18.9971 18.213C18.9887 18.2214 18.9822 18.2315 18.978 18.2426C18.9737 18.2537 18.9719 18.2655 18.9726 18.2774C18.9732 18.2893 18.9764 18.3008 18.9819 18.3114C19.3791 19.0808 19.8327 19.8136 20.3322 20.5085C20.3424 20.5229 20.3568 20.5336 20.3735 20.5393C20.3902 20.5449 20.4082 20.5452 20.425 20.54C22.5866 19.8713 24.7786 18.8624 27.0414 17.2007C27.0511 17.1936 27.0592 17.1845 27.0652 17.174C27.0711 17.1635 27.0748 17.1519 27.0759 17.1399C27.6275 11.4332 26.1519 6.47627 23.1643 2.08192C23.157 2.06765 23.1448 2.05646 23.1299 2.0504V2.05051ZM9.57488 14.1333C8.2714 14.1333 7.19731 12.9366 7.19731 11.4669C7.19731 9.99726 8.25057 8.80048 9.57499 8.80048C10.9097 8.80048 11.9733 10.0077 11.9524 11.467C11.9524 12.9366 10.8992 14.1333 9.57488 14.1333ZM18.3656 14.1333C17.0621 14.1333 15.988 12.9366 15.988 11.4669C15.988 9.99726 17.0411 8.80048 18.3656 8.80048C19.7002 8.80048 20.7638 10.0077 20.743 11.467C20.743 12.9366 19.7002 14.1333 18.3656 14.1333Z" fill="white"/>
</svg>
