<svg width="22" height="25" viewBox="0 0 22 25" fill="none" xmlns="http://www.w3.org/2000/svg">
<path d="M4.25376 12.5971C4.57866 12.546 4.89371 12.5153 5.22845 12.5153C5.55334 12.5153 5.87824 12.546 6.21298 12.6073V3.99425C6.21298 3.0645 6.68555 2.54342 7.64054 2.54342H11.8149V8.10153C11.8149 9.58301 12.514 10.2982 13.9317 10.2982H19.2088V19.1462C19.2088 20.0862 18.7362 20.5971 17.7812 20.5971H11.5294C11.4113 21.3327 11.1455 22.0275 10.7812 22.6405H17.9584C20.0751 22.6405 21.168 21.486 21.168 19.2791V10.0019C21.168 8.57152 20.9908 7.91762 20.1342 7.0083L14.9851 1.58301C14.1483 0.704342 13.4591 0.5 12.2186 0.5H7.46333C5.35644 0.5 4.25376 1.65453 4.25376 3.87165V12.5971ZM13.528 7.90741V2.80907L18.9429 8.51022H14.1187C13.7052 8.51022 13.528 8.32631 13.528 7.90741ZM5.23829 24.5C7.99497 24.5 10.3086 22.1092 10.3086 19.228C10.3086 16.3467 8.01466 13.9662 5.23829 13.9662C2.46192 13.9662 0.167969 16.3467 0.167969 19.228C0.167969 22.1194 2.46192 24.5 5.23829 24.5ZM2.01888 19.228C2.01888 18.8091 2.29455 18.5332 2.69821 18.5332H4.55897V16.6022C4.55897 16.1833 4.82479 15.8972 5.23829 15.8972C5.65179 15.8972 5.91762 16.1833 5.91762 16.6022V18.5332H7.77838C8.18203 18.5332 8.44786 18.8091 8.44786 19.228C8.44786 19.6571 8.18203 19.9329 7.77838 19.9329H5.91762V21.8742C5.91762 22.2931 5.65179 22.5792 5.23829 22.5792C4.82479 22.5792 4.55897 22.2931 4.55897 21.8742V19.9329H2.69821C2.29455 19.9329 2.01888 19.6571 2.01888 19.228Z" fill="white"/>
</svg>
