<svg width="31" height="24" viewBox="0 0 31 24" fill="none" xmlns="http://www.w3.org/2000/svg">
<path d="M15.9307 12.898C16.5061 12.898 17.0146 12.6353 17.6167 12.0443L29.285 0.684144C28.7632 0.224484 27.8399 0.0012207 26.5419 0.0012207H4.95819C3.80741 0.0012207 2.99117 0.211351 2.52283 0.631611L14.2447 12.0443C14.8334 12.6353 15.3553 12.898 15.9307 12.898ZM1.23824 20.8435L10.8592 11.4927L1.25162 2.18132C1.01076 2.60158 0.876953 3.29764 0.876953 4.28262V18.7947C0.876953 19.7535 0.997383 20.4364 1.23824 20.8435ZM30.5964 20.8304C30.8238 20.4232 30.9443 19.7403 30.9443 18.7947V4.28262C30.9443 3.3239 30.8105 2.62785 30.5696 2.22072L21.0021 11.4927L30.5964 20.8304ZM5.27933 23.0761H26.863C28.0406 23.0761 28.8702 22.8529 29.3519 22.4195L19.557 12.8717L18.7273 13.6728C17.804 14.5527 16.9209 14.973 15.9307 14.973C14.9405 14.973 14.0439 14.5527 13.1207 13.6728L12.291 12.8717L2.50945 22.3932C3.04469 22.8397 3.98137 23.0761 5.27933 23.0761Z" fill="white"/>
</svg>
