<svg width="18" height="27" viewBox="0 0 18 27" fill="none" xmlns="http://www.w3.org/2000/svg">
<path d="M4.33529 26.5C6.72729 26.5 8.66862 24.5587 8.66862 22.1667V17.8334H4.33529C1.94329 17.8334 0.00195312 19.7747 0.00195312 22.1667C0.00195312 24.5587 1.94329 26.5 4.33529 26.5Z" fill="#0ACF83"/>
<path d="M0.00195312 13.5001C0.00195312 11.1081 1.94329 9.16675 4.33529 9.16675H8.66862V17.8334H4.33529C1.94329 17.8334 0.00195312 15.8921 0.00195312 13.5001Z" fill="#A259FF"/>
<path d="M0.00195312 4.83333C0.00195312 2.44133 1.94329 0.5 4.33529 0.5H8.66862V9.16667H4.33529C1.94329 9.16667 0.00195312 7.22533 0.00195312 4.83333Z" fill="#F24E1E"/>
<path d="M8.66992 0.5H13.0033C15.3953 0.5 17.3366 2.44133 17.3366 4.83333C17.3366 7.22533 15.3953 9.16667 13.0033 9.16667H8.66992V0.5Z" fill="#FF7262"/>
<path d="M17.3366 13.5001C17.3366 15.8921 15.3953 17.8334 13.0033 17.8334C10.6113 17.8334 8.66992 15.8921 8.66992 13.5001C8.66992 11.1081 10.6113 9.16675 13.0033 9.16675C15.3953 9.16675 17.3366 11.1081 17.3366 13.5001Z" fill="#1ABCFE"/>
</svg>
