<svg width="26" height="25" viewBox="0 0 26 25" fill="none" xmlns="http://www.w3.org/2000/svg">
<path d="M13.2881 0.158936C6.29283 0.158936 0.626953 5.84274 0.626953 12.8531C0.626953 18.4628 4.25438 23.22 9.28403 24.8966C9.91709 25.0162 10.1492 24.6237 10.1492 24.2863C10.1492 23.9848 10.1387 23.1861 10.1334 22.1283C6.61147 22.8941 5.86868 20.4251 5.86868 20.4251C5.2926 18.96 4.46012 18.5686 4.46012 18.5686C3.31323 17.7816 4.54875 17.7974 4.54875 17.7974C5.82015 17.8863 6.48802 19.1049 6.48802 19.1049C7.61698 21.0461 9.45179 20.4854 10.1756 20.1607C10.2895 19.3398 10.6156 18.7802 10.9775 18.4628C8.16563 18.1455 5.2103 17.0538 5.2103 12.1898C5.2103 10.804 5.70092 9.67213 6.51334 8.78355C6.37091 8.46302 5.94359 7.17245 6.62413 5.42383C6.62413 5.42383 7.6845 5.0832 10.106 6.72498C11.1188 6.44253 12.195 6.3029 13.2712 6.29655C14.3474 6.3029 15.4236 6.44253 16.4365 6.72498C18.8422 5.0832 19.9025 5.42383 19.9025 5.42383C20.5831 7.17245 20.1558 8.46302 20.0292 8.78355C20.8363 9.67213 21.3269 10.804 21.3269 12.1898C21.3269 17.0665 18.3674 18.1402 15.5503 18.4522C15.9934 18.8331 16.4049 19.6116 16.4049 20.8007C16.4049 22.4996 16.3891 23.8642 16.3891 24.2767C16.3891 24.61 16.6106 25.0067 17.2595 24.8797C22.325 23.2147 25.9493 18.4544 25.9493 12.8531C25.9493 5.84274 20.2803 0.158936 13.2881 0.158936Z" fill="white"/>
</svg>
