<svg width="23" height="23" viewBox="0 0 23 23" fill="none" xmlns="http://www.w3.org/2000/svg">
<path d="M19.7043 19.2082H16.4467V14.1038C16.4467 12.8866 16.422 11.3201 14.7492 11.3201C13.0508 11.3201 12.7914 12.6446 12.7914 14.014V19.2082H9.53386V8.71152H12.6631V10.1423H12.7052C13.1424 9.31739 14.2057 8.44663 15.7941 8.44663C19.0947 8.44663 19.7052 10.6189 19.7052 13.4466V19.2082H19.7043ZM5.85469 7.27524C4.80612 7.27524 3.96378 6.42648 3.96378 5.3825C3.96378 4.33943 4.80704 3.49159 5.85469 3.49159C6.8996 3.49159 7.74652 4.33943 7.74652 5.3825C7.74652 6.42648 6.89868 7.27524 5.85469 7.27524ZM7.48804 19.2082H4.22134V8.71152H7.48804V19.2082ZM21.3339 0.46228H2.58616C1.68882 0.46228 0.962891 1.17172 0.962891 2.04705V20.8755C0.962891 21.7517 1.68882 22.4603 2.58616 22.4603H21.3312C22.2276 22.4603 22.9609 21.7517 22.9609 20.8755V2.04705C22.9609 1.17172 22.2276 0.46228 21.3312 0.46228H21.3339Z" fill="white"/>
</svg>
