<svg width="26" height="23" viewBox="0 0 26 23" fill="none" xmlns="http://www.w3.org/2000/svg">
<path d="M4.10984 19.78H5.23528V20.7523C5.23528 22.31 6.01106 23 7.58449 23H18.7514C20.3139 23 21.1007 22.31 21.1007 20.7523V19.78H22.2261C24.4551 19.78 25.668 18.6614 25.668 16.5182V6.92091C25.668 4.78818 24.4551 3.65909 22.2261 3.65909H21.2318V3.09455C21.2318 0.972273 20.1173 0 17.9757 0H8.36028C6.30608 0 5.10416 0.972273 5.10416 3.09455V3.65909H4.10984C1.96823 3.65909 0.667969 4.78818 0.667969 6.92091V16.5182C0.667969 18.6614 1.88082 19.78 4.10984 19.78ZM7.1365 2.94818C7.1365 2.17455 7.55171 1.77727 8.36028 1.77727H17.9757C18.7842 1.77727 19.1994 2.17455 19.1994 2.94818V3.65909H7.1365V2.94818ZM18.7514 10.3082H7.58449C6.0657 10.3082 5.23528 10.9982 5.23528 12.5559V17.8982H4.10984C3.21386 17.8982 2.74402 17.4486 2.74402 16.6018V6.84773C2.74402 5.99045 3.21386 5.54091 4.10984 5.54091H22.2261C23.1221 5.54091 23.581 5.99045 23.581 6.84773V16.6018C23.581 17.4486 23.1221 17.8982 22.2261 17.8982H21.1007V12.5559C21.1007 10.9982 20.3139 10.3082 18.7514 10.3082ZM18.3035 7.94545C18.3035 8.70864 18.9481 9.30455 19.7348 9.29409C20.4997 9.29409 21.1444 8.69818 21.1444 7.94545C21.1444 7.21364 20.4997 6.58636 19.7348 6.58636C18.9591 6.58636 18.3035 7.21364 18.3035 7.94545ZM8.03248 21.1705C7.508 21.1705 7.24577 20.93 7.24577 20.4177V12.8905C7.24577 12.3782 7.508 12.1377 8.03248 12.1377H18.3144C18.8389 12.1377 19.0902 12.3782 19.0902 12.8905V20.4177C19.0902 20.93 18.8389 21.1705 18.3144 21.1705H8.03248ZM9.57313 15.5982H16.7847C17.2108 15.5982 17.5277 15.2845 17.5277 14.8768C17.5277 14.49 17.2108 14.1764 16.7847 14.1764H9.57313C9.13606 14.1764 8.81919 14.49 8.81919 14.8768C8.81919 15.2845 9.13606 15.5982 9.57313 15.5982ZM9.57313 19.1423H16.7847C17.2108 19.1423 17.5277 18.8391 17.5277 18.4418C17.5277 18.0445 17.2108 17.7205 16.7847 17.7205H9.57313C9.13606 17.7205 8.81919 18.0445 8.81919 18.4418C8.81919 18.8391 9.13606 19.1423 9.57313 19.1423Z" fill="white"/>
</svg>
