<svg width="12" height="14" viewBox="0 0 12 14" fill="none" xmlns="http://www.w3.org/2000/svg">
<path fill="white" d="M5.99414 7.42383C6.11133 7.42383 6.22852 7.4043 6.3457 7.36523C6.4668 7.32617 6.59766 7.26562 6.73828 7.18359L11.3203 4.52344C11.5586 4.38281 11.7266 4.25391 11.8242 4.13672C11.9258 4.01562 11.9766 3.87305 11.9766 3.70898C11.9766 3.54883 11.9258 3.41016 11.8242 3.29297C11.7266 3.17188 11.5586 3.04102 11.3203 2.90039L6.73828 0.240234C6.59766 0.158203 6.4668 0.0976562 6.3457 0.0585938C6.22852 0.0195312 6.11133 0 5.99414 0C5.87305 0 5.75391 0.0195312 5.63672 0.0585938C5.51953 0.0976562 5.38867 0.158203 5.24414 0.240234L0.662109 2.90039C0.423828 3.04102 0.253906 3.17188 0.152344 3.29297C0.0546875 3.41016 0.00585938 3.54883 0.00585938 3.70898C0.00585938 3.87305 0.0546875 4.01562 0.152344 4.13672C0.253906 4.25391 0.423828 4.38281 0.662109 4.52344L5.24414 7.18359C5.38867 7.26562 5.51953 7.32617 5.63672 7.36523C5.75391 7.4043 5.87305 7.42383 5.99414 7.42383ZM5.99414 10.3125C6.09961 10.3125 6.20117 10.2891 6.29883 10.2422C6.39648 10.1953 6.50781 10.1367 6.63281 10.0664L11.666 7.0957C11.7754 7.0293 11.8555 6.95117 11.9062 6.86133C11.957 6.76758 11.9824 6.67578 11.9824 6.58594C11.9824 6.46484 11.9453 6.35938 11.8711 6.26953C11.8008 6.17578 11.7246 6.10938 11.6426 6.07031L6.2168 9.20508C6.17383 9.22852 6.13281 9.24805 6.09375 9.26367C6.05859 9.2793 6.02539 9.28711 5.99414 9.28711C5.95898 9.28711 5.92188 9.2793 5.88281 9.26367C5.84766 9.24805 5.80859 9.22852 5.76562 9.20508L0.339844 6.07031C0.257812 6.10938 0.179688 6.17578 0.105469 6.26953C0.0351562 6.35938 0 6.46484 0 6.58594C0 6.67578 0.0253906 6.76758 0.0761719 6.86133C0.130859 6.95117 0.212891 7.0293 0.322266 7.0957L5.34961 10.0664C5.47461 10.1367 5.58594 10.1953 5.68359 10.2422C5.78125 10.2891 5.88477 10.3125 5.99414 10.3125ZM5.99414 13.0078C6.09961 13.0078 6.20117 12.9844 6.29883 12.9375C6.39648 12.8945 6.50781 12.8359 6.63281 12.7617L11.666 9.79102C11.7715 9.72852 11.8496 9.65234 11.9004 9.5625C11.9551 9.46875 11.9824 9.375 11.9824 9.28125C11.9824 9.16406 11.9453 9.06055 11.8711 8.9707C11.8008 8.87695 11.7246 8.80859 11.6426 8.76562L6.2168 11.9062C6.17383 11.9297 6.13281 11.9492 6.09375 11.9648C6.05859 11.9805 6.02539 11.9883 5.99414 11.9883C5.95898 11.9883 5.92188 11.9805 5.88281 11.9648C5.84766 11.9492 5.80859 11.9297 5.76562 11.9062L0.339844 8.76562C0.257812 8.80859 0.179688 8.87695 0.105469 8.9707C0.0351562 9.06055 0 9.16406 0 9.28125C0 9.375 0.0253906 9.46875 0.0761719 9.5625C0.130859 9.65234 0.212891 9.72852 0.322266 9.79102L5.34961 12.7617C5.47461 12.8359 5.58594 12.8945 5.68359 12.9375C5.78125 12.9844 5.88477 13.0078 5.99414 13.0078Z" />
</svg>
