<svg width="26" height="49" viewBox="0 0 26 49" fill="none" xmlns="http://www.w3.org/2000/svg">
<path d="M24.5337 38.3462H24.3594V38.2451H24.8287V38.3462H24.6555V38.8508H24.5337V38.3462ZM25.4698 38.3726H25.4671L25.2942 38.851H25.2152L25.0436 38.3726H25.0415V38.851H24.9266V38.2453H25.0957L25.2548 38.6742L25.4134 38.2453H25.5819V38.851H25.4697L25.4698 38.3726Z" fill="#E76F00"/>
<path d="M8.92666 25.9615C8.92666 25.9615 7.71367 26.6929 9.78991 26.9404C12.3052 27.2379 13.5908 27.1952 16.3626 26.6513C16.3626 26.6513 17.0914 27.125 18.1092 27.5354C11.8953 30.2965 4.04603 27.3754 8.92666 25.9615ZM8.16737 22.3584C8.16737 22.3584 6.80688 23.4025 8.88466 23.6253C11.5716 23.9127 13.6935 23.9362 17.3653 23.2032C17.3653 23.2032 17.8732 23.737 18.6718 24.0289C11.1588 26.3067 2.79077 24.2086 8.16737 22.3584Z" fill="#5382A1"/>
<path d="M14.5684 16.2464C16.0995 18.074 14.1662 19.7188 14.1662 19.7188C14.1662 19.7188 18.0537 17.638 16.2684 15.0323C14.6008 12.6023 13.322 11.395 20.2449 7.2323C20.2449 7.23221 9.3783 10.046 14.5684 16.2464Z" fill="#E76F00"/>
<path d="M22.7883 28.6265C22.7883 28.6265 23.686 29.3934 21.7998 29.9866C18.213 31.1131 6.8715 31.4533 3.72087 30.0316C2.5883 29.5207 4.71219 28.8117 5.38029 28.663C6.07704 28.5063 6.47521 28.5355 6.47521 28.5355C5.21568 27.6156 -1.6659 30.3418 2.97971 31.1226C15.649 33.2528 26.0747 30.1634 22.7883 28.6265ZM9.51155 18.6251C9.51155 18.6251 3.74252 20.0457 7.46859 20.5616C9.04185 20.78 12.1781 20.7306 15.0994 20.4768C17.4869 20.268 19.8843 19.8242 19.8843 19.8242C19.8843 19.8242 19.0424 20.198 18.4333 20.6291C12.575 22.2266 1.25775 21.4834 4.51584 19.8494C7.27121 18.4684 9.51155 18.6251 9.51155 18.6251ZM19.8605 24.6226C25.8158 21.4142 23.0624 18.3308 21.1404 18.7462C20.6693 18.8479 20.4593 18.936 20.4593 18.936C20.4593 18.936 20.6342 18.652 20.9681 18.529C24.7702 17.1431 27.6943 22.6165 19.7407 24.7844C19.7407 24.7844 19.833 24.6991 19.8605 24.6226Z" fill="#5382A1"/>
<path d="M16.2709 0.51001C16.2709 0.51001 19.5691 3.93058 13.1428 9.19066C7.9896 13.41 11.9677 15.8158 13.1407 18.5646C10.1327 15.7507 7.92526 13.2738 9.40621 10.9684C11.5798 7.58425 17.6017 5.94351 16.2709 0.51001Z" fill="#E76F00"/>
<path d="M10.0971 33.3168C15.8134 33.6961 24.5915 33.1063 24.7993 30.302C24.7993 30.302 24.3997 31.365 20.075 32.2094C15.1961 33.1613 9.17846 33.0502 5.60938 32.4401C5.60955 32.4399 6.3401 33.067 10.0971 33.3168Z" fill="#5382A1"/>
<path d="M9.15927 44.0321C8.62002 44.5171 8.05049 44.7893 7.53938 44.7893C6.80986 44.7893 6.41571 44.3358 6.41571 43.6083C6.41571 42.8214 6.83809 42.2461 8.53224 42.2461H9.15919L9.15927 44.0321ZM10.6472 45.7728V40.3848C10.6472 39.0083 9.89008 38.1001 8.06452 38.1001C6.99876 38.1001 6.06519 38.373 5.30641 38.721L5.52543 39.6747C6.12285 39.4474 6.89618 39.2357 7.65522 39.2357C8.70686 39.2357 9.15927 39.6747 9.15927 40.5823V41.2634H8.6344C6.07931 41.2634 4.92672 42.2917 4.92672 43.8351C4.92672 45.1673 5.68627 45.9244 7.1164 45.9244C8.03569 45.9244 8.72192 45.5309 9.36341 44.955L9.47985 45.7729L10.6472 45.7728ZM15.6131 45.7728H13.7573L11.5238 38.2366H13.1446L14.5304 42.8668L14.8385 44.2593C15.5396 42.2459 16.0356 40.2033 16.2836 38.2366H17.8601C17.4376 40.7181 16.6776 43.442 15.6131 45.7728ZM22.7324 44.0321C22.1922 44.5171 21.6217 44.7893 21.1105 44.7893C20.3822 44.7893 19.9871 44.3358 19.9871 43.6083C19.9871 42.8214 20.4103 42.2461 22.1044 42.2461H22.7324V44.0321ZM24.2202 45.7728V40.3848C24.2202 39.0083 23.4613 38.1001 21.6377 38.1001C20.5712 38.1001 19.6373 38.373 18.8789 38.721L19.0976 39.6747C19.6952 39.4474 20.47 39.2357 21.2285 39.2357C22.2793 39.2357 22.7324 39.6747 22.7324 40.5823V41.2634H22.2066C19.6508 41.2634 18.4987 42.2917 18.4987 43.8351C18.4987 45.1673 19.2576 45.9244 20.6875 45.9244C21.6074 45.9244 22.2934 45.5309 22.9359 44.955L23.0527 45.7729L24.2202 45.7728ZM3.29519 47.0525C2.87101 47.6946 2.18589 48.2026 1.43583 48.49L0.701172 47.5937C1.27208 47.2899 1.76171 46.7994 1.9892 46.3426C2.18597 45.9362 2.26742 45.4125 2.26742 44.1601V35.5564H3.8483V44.0423C3.84821 45.7165 3.71911 46.3929 3.29519 47.0525Z" fill="#E76F00"/>
</svg>
