<svg width="50" height="27" viewBox="0 0 50 27" fill="none" xmlns="http://www.w3.org/2000/svg">
<path d="M0.769531 13.5C0.769531 20.4765 11.5768 26.1322 24.9077 26.1322C38.2387 26.1322 49.046 20.4765 49.046 13.5C49.046 6.52365 38.2387 0.867891 24.9077 0.867891C11.5768 0.867891 0.769531 6.52365 0.769531 13.5Z" fill="url(#paint0_radial_234_1492)"/>
<path d="M24.914 25.1947C37.7243 25.1947 48.1093 19.959 48.1093 13.5004C48.1093 7.04193 37.7243 1.80611 24.914 1.80611C12.1038 1.80611 1.71875 7.04193 1.71875 13.5004C1.71875 19.959 12.1038 25.1947 24.914 25.1947Z" fill="#777BB3"/>
<path d="M13.8867 14.9503C14.9401 14.9503 15.7264 14.757 16.224 14.3761C16.7162 13.999 17.0562 13.3458 17.2344 12.4346C17.4005 11.5829 17.3372 10.9882 17.0463 10.6673C16.7489 10.3395 16.1058 10.1732 15.1349 10.1732H13.4516L12.5184 14.9503H13.8867ZM8.38099 20.8347C8.30285 20.8347 8.22864 20.8 8.17896 20.7399C8.1292 20.6799 8.10903 20.6008 8.12396 20.5245L10.5971 7.86522C10.6211 7.74284 10.7289 7.65442 10.8543 7.65442H16.1846C17.8598 7.65442 19.1067 8.10693 19.8905 8.99955C20.6784 9.89685 20.9217 11.1511 20.6136 12.7275C20.4882 13.3697 20.2726 13.9661 19.9727 14.5001C19.6725 15.0347 19.2757 15.5293 18.7931 15.9706C18.2155 16.5084 17.5618 16.8983 16.8518 17.1278C16.1531 17.3542 15.2558 17.4691 14.1848 17.4691H12.0264L11.41 20.6238C11.3861 20.7463 11.2784 20.8347 11.153 20.8347H8.38099Z" fill="black"/>
<path d="M13.6677 10.4334H15.1351C16.3069 10.4334 16.7139 10.6891 16.8522 10.8416C17.0816 11.0947 17.1249 11.6283 16.9775 12.3847C16.8118 13.2316 16.5046 13.832 16.0644 14.1692C15.6138 14.5143 14.8811 14.6893 13.8869 14.6893H12.8363L13.6677 10.4334ZM16.1848 7.39342H10.8544C10.6036 7.39342 10.3881 7.57025 10.3402 7.8151L7.86706 20.4744C7.8372 20.6271 7.87753 20.7851 7.97697 20.9052C8.0765 21.0254 8.22475 21.0948 8.3812 21.0948H11.1531C11.404 21.0948 11.6195 20.918 11.6674 20.6732L12.2425 17.7292H14.185C15.2835 17.7292 16.2082 17.61 16.9333 17.3751C17.679 17.1341 18.365 16.7254 18.9722 16.1605C19.4744 15.7009 19.888 15.1849 20.2015 14.6269C20.515 14.0687 20.7402 13.4462 20.8709 12.7767C21.1953 11.1174 20.9318 9.78871 20.0879 8.82775C19.2522 7.87599 17.939 7.39342 16.1848 7.39342ZM12.2008 15.2104H13.8869C15.0045 15.2104 15.837 15.001 16.384 14.5821C16.931 14.1631 17.3 13.4638 17.4917 12.4839C17.6751 11.5431 17.5916 10.8792 17.241 10.4924C16.8901 10.1056 16.1882 9.91222 15.1351 9.91222H13.2359L12.2008 15.2104ZM16.1848 7.91455C17.7884 7.91455 18.9582 8.33319 19.6934 9.17056C20.4286 10.0079 20.6501 11.1767 20.3567 12.6773C20.236 13.2955 20.0318 13.8607 19.7443 14.3727C19.4564 14.885 19.0806 15.3535 18.6161 15.7783C18.0626 16.2937 17.4477 16.6609 16.7711 16.8796C16.0945 17.0989 15.2327 17.2081 14.185 17.2081H11.8106L11.1531 20.5737H8.3812L10.8544 7.91455H16.1848Z" fill="white"/>
<path d="M26.9698 17.4689C26.8916 17.4689 26.8175 17.4341 26.7678 17.374C26.718 17.314 26.6978 17.2351 26.7127 17.1586L27.8068 11.5574C27.9108 11.0247 27.8852 10.6424 27.7346 10.4808C27.6424 10.3821 27.3654 10.2165 26.5466 10.2165H24.5646L23.1891 17.258C23.1652 17.3805 23.0573 17.4689 22.932 17.4689H20.1819C20.1036 17.4689 20.0295 17.4341 19.9797 17.374C19.93 17.314 19.9098 17.235 19.9247 17.1586L22.3979 4.49937C22.4218 4.37699 22.5297 4.28857 22.655 4.28857H25.4052C25.4834 4.28857 25.5575 4.32331 25.6073 4.38333C25.657 4.44344 25.6772 4.52239 25.6623 4.59882L25.0655 7.65422H27.1976C28.8219 7.65422 29.9234 7.9391 30.5649 8.5252C31.2188 9.12311 31.4229 10.0791 31.1714 11.367L30.0207 17.258C29.9968 17.3805 29.8891 17.4689 29.7636 17.4689H26.9698Z" fill="black"/>
<path d="M25.4054 4.02818H22.6553C22.4044 4.02818 22.1889 4.20502 22.141 4.44986L19.6678 17.1091C19.638 17.2619 19.6783 17.4199 19.7778 17.54C19.8774 17.6601 20.0256 17.7296 20.1821 17.7296H22.9322C23.1829 17.7296 23.3986 17.5528 23.4464 17.3079L24.7807 10.4772H26.5468C27.3642 10.4772 27.5358 10.6509 27.5427 10.6584C27.5923 10.7114 27.6575 10.9572 27.5499 11.5079L26.4558 17.1091C26.426 17.2619 26.4663 17.4199 26.5658 17.54C26.6654 17.6601 26.8136 17.7296 26.9701 17.7296H29.7638C30.0146 17.7296 30.2302 17.5528 30.2781 17.3079L31.4287 11.417C31.6987 10.0341 31.4677 8.99683 30.7424 8.3336C30.0502 7.70121 28.8908 7.39383 27.1978 7.39383H25.3833L25.9196 4.64876C25.9494 4.49599 25.9091 4.33791 25.8096 4.21787C25.7101 4.09775 25.5618 4.02818 25.4054 4.02818ZM25.4054 4.54931L24.7479 7.91496H27.1978C28.7394 7.91496 29.8027 8.18265 30.3879 8.71733C30.9731 9.25236 31.1484 10.1193 30.9145 11.3176L29.7638 17.2085H26.9701L28.0641 11.6074C28.1886 10.9702 28.1428 10.5356 27.9267 10.3038C27.7104 10.0721 27.2504 9.95606 26.5468 9.95606H24.3488L22.9322 17.2085H20.1821L22.6553 4.54931H25.4054Z" fill="white"/>
<path d="M35.5234 14.95C36.5768 14.95 37.3631 14.7568 37.8607 14.3758C38.3529 13.9989 38.6929 13.3456 38.8712 12.4343C39.0373 11.5826 38.974 10.9879 38.683 10.667C38.3856 10.3392 37.7425 10.173 36.7716 10.173H35.0883L34.1551 14.95H35.5234ZM30.0178 20.8345C29.9396 20.8345 29.8654 20.7997 29.8158 20.7396C29.766 20.6796 29.7457 20.6006 29.7607 20.5242L32.2339 7.86497C32.2579 7.74259 32.3656 7.65417 32.4911 7.65417H37.8213C39.4966 7.65417 40.7434 8.10669 41.5273 8.9993C42.3152 9.89652 42.5584 11.1508 42.2504 12.7272C42.1249 13.3694 41.9093 13.9659 41.6094 14.4999C41.3092 15.0344 40.9124 15.5291 40.4298 15.9703C39.8522 16.5081 39.1985 16.8981 38.4885 17.1276C37.7898 17.354 36.8925 17.4688 35.8215 17.4688H33.663L33.0469 20.6236C33.0229 20.7461 32.9152 20.8345 32.7897 20.8345H30.0178Z" fill="black"/>
<path d="M35.3043 10.4337H36.7718C37.9435 10.4337 38.3505 10.6895 38.4888 10.8419C38.7183 11.095 38.7616 11.6287 38.6141 12.385C38.4484 13.2319 38.1412 13.8324 37.7011 14.1695C37.2504 14.5147 36.5177 14.6896 35.5236 14.6896H34.473L35.3043 10.4337ZM37.8214 7.39378H32.4911C32.2404 7.39378 32.0248 7.57062 31.977 7.81546L29.5038 20.4747C29.4739 20.6275 29.5143 20.7855 29.6137 20.9056C29.7132 21.0257 29.8615 21.0952 30.0179 21.0952H32.7899C33.0406 21.0952 33.2562 20.9184 33.3041 20.6735L33.8792 17.7296H35.8216C36.9201 17.7296 37.8448 17.6104 38.5699 17.3755C39.3156 17.1344 40.0018 16.7257 40.609 16.1607C41.1112 15.7011 41.5247 15.1853 41.8381 14.6273C42.1516 14.0691 42.3769 13.4466 42.5076 12.7771C42.8319 11.1177 42.5684 9.78899 41.7245 8.82802C40.8888 7.87635 39.5757 7.39378 37.8214 7.39378ZM33.8375 15.2108H35.5236C36.6412 15.2108 37.4736 15.0014 38.0206 14.5825C38.5677 14.1635 38.9366 13.4642 39.1283 12.4843C39.3118 11.5435 39.2283 10.8795 38.8777 10.4928C38.5267 10.106 37.8249 9.91259 36.7718 9.91259H34.8725L33.8375 15.2108ZM37.8214 7.91491C39.425 7.91491 40.5948 8.33356 41.3301 9.17093C42.0654 10.0083 42.2867 11.1771 41.9933 12.6777C41.8726 13.2959 41.6684 13.861 41.3809 14.373C41.093 14.8854 40.7172 15.3539 40.2527 15.7787C39.6992 16.294 39.0843 16.6612 38.4077 16.88C37.7311 17.0993 36.8693 17.2084 35.8216 17.2084H33.4473L32.7899 20.5741H30.0179L32.4911 7.91491H37.8214Z" fill="white"/>
<defs>
<radialGradient id="paint0_radial_234_1492" cx="0" cy="0" r="1" gradientUnits="userSpaceOnUse" gradientTransform="translate(15.2622 5.30897) scale(31.6969 31.5335)">
<stop stop-color="#AEB2D5"/>
<stop offset="0.3" stop-color="#AEB2D5"/>
<stop offset="0.75" stop-color="#484C89"/>
<stop offset="1" stop-color="#484C89"/>
</radialGradient>
</defs>
</svg>
