<svg width="74" height="23" viewBox="0 0 74 23" fill="none" xmlns="http://www.w3.org/2000/svg">
<path d="M27.9705 9.93377C27.9705 7.70613 27.3353 6.56171 26.0642 6.49898C25.5587 6.47512 25.0649 6.55565 24.5848 6.7421C24.2016 6.87929 23.9436 7.01504 23.8079 7.15213V12.4703C24.6206 12.9804 25.3425 13.2174 25.9713 13.1802C27.303 13.0922 27.9694 12.011 27.9694 9.93362L27.9705 9.93377ZM29.5372 10.0262C29.5372 11.1581 29.2717 12.0978 28.7379 12.8444C28.1429 13.6901 27.3183 14.1255 26.264 14.1494C25.4692 14.1747 24.6499 13.9257 23.8084 13.4036V18.2368L22.4453 17.7506V7.02243C22.669 6.74811 22.9568 6.51234 23.3058 6.31253C24.117 5.83976 25.1035 5.59665 26.2632 5.58472L26.2826 5.6041C27.3429 5.59068 28.1599 6.02607 28.7336 6.90902C29.269 7.71883 29.5375 8.75722 29.5375 10.0256L29.5372 10.0262Z" fill="#C2C2C2"/>
<path d="M37.8694 13.1986C37.8694 14.7168 37.7173 15.7675 37.413 16.3534C37.1073 16.938 36.5256 17.4048 35.6673 17.7523C34.9708 18.0266 34.2178 18.1758 33.409 18.2012L33.1838 17.3423C34.0056 17.2304 34.5842 17.1186 34.9204 17.0067C35.581 16.7831 36.0343 16.44 36.2834 15.9807C36.4832 15.6063 36.5816 14.8922 36.5816 13.8342V13.4792C35.6495 13.9027 34.6722 14.1131 33.6517 14.1131C32.9807 14.1131 32.3886 13.9029 31.8785 13.4792C31.3058 13.0184 31.0195 12.4338 31.0195 11.7259V6.05273L32.3826 5.58594V11.2958C32.3826 11.9058 32.5795 12.3755 32.9732 12.7051C33.3668 13.0346 33.8769 13.1927 34.5018 13.1807C35.1266 13.1673 35.7961 12.9257 36.5075 12.4529V5.79141H37.8706V13.198L37.8694 13.1986Z" fill="#C2C2C2"/>
<path d="M43.1932 14.0755C43.0307 14.089 42.8815 14.0949 42.7443 14.0949C41.9733 14.0949 41.3724 13.9115 40.9435 13.5432C40.5156 13.1748 40.3008 12.6664 40.3008 12.0177V6.649H39.3672V5.79145H40.3008V3.51485L41.6623 3.03015V5.79175H43.1938V6.6493H41.6623V11.9813C41.6623 12.4927 41.7995 12.8552 42.0739 13.0669C42.3095 13.2414 42.6839 13.3413 43.1938 13.3667V14.0766L43.1932 14.0755Z" fill="#C2C2C2"/>
<path d="M51.4417 13.9637H50.0787V8.70213C50.0787 8.16679 49.9534 7.70596 49.7043 7.32117C49.4165 6.88574 49.0168 6.66803 48.5038 6.66803C47.879 6.66803 47.0975 6.99758 46.1599 7.65669V13.9632H44.7969V1.38686L46.1599 0.957397V6.68562C47.0308 6.05175 47.9821 5.73413 49.0164 5.73413C49.7382 5.73413 50.3227 5.97724 50.7697 6.46194C51.2186 6.94663 51.4423 7.55051 51.4423 8.2719V13.9619L51.4417 13.9637Z" fill="#C2C2C2"/>
<path d="M58.6921 9.71961C58.6921 8.86359 58.5296 8.15751 58.2059 7.59754C57.8211 6.91609 57.2232 6.55669 56.4143 6.51936C54.92 6.60585 54.1744 7.67664 54.1744 9.72925C54.1744 10.6702 54.3296 11.4566 54.6427 12.0869C55.0424 12.8908 55.642 13.2874 56.442 13.274C57.9423 13.2621 58.6926 12.0781 58.6926 9.71992L58.6921 9.71961ZM60.1849 9.72856C60.1849 10.9469 59.8733 11.9608 59.2513 12.7701C58.5668 13.6768 57.6219 14.1317 56.4148 14.1317C55.2188 14.1317 54.2866 13.6768 53.6134 12.7701C53.0034 11.9603 52.6992 10.9464 52.6992 9.72856C52.6992 8.58322 53.0288 7.62025 53.6879 6.83538C54.3843 6.00322 55.3005 5.58569 56.4311 5.58569C57.563 5.58569 58.4844 6.00322 59.1943 6.83538C59.8534 7.61979 60.1829 8.58261 60.1829 9.72856H60.1849Z" fill="#C2C2C2"/>
<path d="M67.9929 13.9638H66.6298V8.40391C66.6298 7.7939 66.4464 7.31824 66.0795 6.97522C65.7126 6.63373 65.2235 6.46818 64.6136 6.48165C63.9664 6.49358 63.3505 6.70533 62.7654 7.11551V13.9637H61.4023V6.94722C62.1868 6.37608 62.9086 6.00322 63.5673 5.82881C64.1892 5.66632 64.7378 5.58569 65.2105 5.58569C65.534 5.58569 65.8384 5.61701 66.1246 5.67965C66.6599 5.80342 67.0954 6.03307 67.4309 6.37013C67.8053 6.74298 67.9916 7.19035 67.9916 7.71375V13.9637L67.9929 13.9638Z" fill="#C2C2C2"/>
<path d="M8.98428 1.43752C8.28294 1.44078 7.61327 1.50058 7.02438 1.6049C5.28786 1.91166 4.97269 2.55348 4.97269 3.73768V5.30131H9.07455V5.82242H4.97269H3.43353C2.24138 5.82242 1.19671 6.53906 0.870829 7.90166C0.494149 9.46376 0.477472 10.4399 0.870829 12.0708C1.16244 13.2853 1.85889 14.1501 3.05104 14.1501H4.46152V12.2759C4.46152 10.9218 5.63303 9.72692 7.02423 9.72692H11.1215C12.2621 9.72692 13.1732 8.78782 13.1732 7.64309V3.73707C13.1732 2.62539 12.2353 1.79094 11.1215 1.60428C10.4168 1.48698 9.68562 1.43369 8.98413 1.4369L8.98428 1.43752ZM6.76582 2.695C7.18962 2.695 7.53555 3.04674 7.53555 3.47911C7.53555 3.90995 7.18947 4.25848 6.76582 4.25848C6.34064 4.25848 5.99609 3.91011 5.99609 3.47911C5.99609 3.04674 6.34064 2.695 6.76582 2.695Z" fill="url(#paint0_linear_234_1530)"/>
<path d="M13.6824 5.82141V7.64361C13.6824 9.05593 12.485 10.2446 11.1197 10.2446H7.0224C5.90001 10.2446 4.9707 11.2051 4.9707 12.3284V16.2344C4.9707 17.3461 5.93749 18 7.0224 18.3182C8.32089 18.7001 9.56675 18.7691 11.1197 18.3182C12.1524 18.0193 13.1714 17.4174 13.1714 16.2344V14.6708H9.07409V14.1497H13.1714H15.2231C16.4152 14.1497 16.8601 13.3181 17.2748 12.0704C17.703 10.7854 17.6848 9.54904 17.2748 7.90126C16.9801 6.71446 16.4174 5.82202 15.2231 5.82202H13.6839L13.6824 5.82141ZM11.3782 15.7142C11.8034 15.7142 12.148 16.0626 12.148 16.4936C12.148 16.926 11.8034 17.2777 11.3782 17.2777C10.9544 17.2777 10.6085 16.926 10.6085 16.4936C10.6085 16.0627 10.9546 15.7142 11.3782 15.7142Z" fill="url(#paint1_linear_234_1530)"/>
<path d="M70.654 4.5759H70.893V3.07714H71.4591V2.89844H70.0879V3.07714H70.654V4.5759ZM71.671 4.5759H71.8751V3.20703L72.3181 4.57575H72.5455L73.0072 3.21162V4.5759H73.23V2.89905H72.9353L72.4307 4.33615L72.0004 2.89905H71.671V4.5759Z" fill="#C2C2C2"/>
<path opacity="0.4438" d="M14.6246 20.9766C14.6246 21.2594 14.0453 21.5305 13.0143 21.7304C11.9833 21.9303 10.5849 22.0426 9.12674 22.0426C7.66863 22.0426 6.27023 21.9303 5.23919 21.7304C4.20814 21.5305 3.62891 21.2594 3.62891 20.9766C3.62891 20.6939 4.20814 20.4228 5.23919 20.2229C6.27023 20.023 7.66863 19.9106 9.12674 19.9106C10.5849 19.9106 11.9833 20.023 13.0143 20.2229C14.0453 20.4228 14.6246 20.6939 14.6246 20.9766Z" fill="url(#paint2_radial_234_1530)"/>
<defs>
<linearGradient id="paint0_linear_234_1530" x1="0.581759" y1="1.43718" x2="10.0443" y2="9.4976" gradientUnits="userSpaceOnUse">
<stop stop-color="#5A9FD4"/>
<stop offset="1" stop-color="#306998"/>
</linearGradient>
<linearGradient id="paint1_linear_234_1530" x1="11.2815" y1="16.3672" x2="7.88143" y2="11.6101" gradientUnits="userSpaceOnUse">
<stop stop-color="#FFD43B"/>
<stop offset="1" stop-color="#FFE873"/>
</linearGradient>
<radialGradient id="paint2_radial_234_1530" cx="0" cy="0" r="1" gradientUnits="userSpaceOnUse" gradientTransform="translate(9.13406 20.9724) rotate(-90) scale(1.06605 4.68698)">
<stop stop-color="#B8B8B8" stop-opacity="0.498"/>
<stop offset="1" stop-color="#7F7F7F" stop-opacity="0"/>
</radialGradient>
</defs>
</svg>
